<?xml version="1.0" encoding="UTF-8"?>
<svg version="1.1" xmlns="http://www.w3.org/2000/svg" width="212" height="237">
<path d="M0 0 C69.96 0 139.92 0 212 0 C212 78.21 212 156.42 212 237 C142.04 237 72.08 237 0 237 C0 158.79 0 80.58 0 0 Z " fill="#FBFDFE" transform="translate(0,0)"/>
<path d="M0 0 C0.86625 0.804375 1.7325 1.60875 2.625 2.4375 C26.41345176 22.6433536 56.08563515 26.46602844 86 30 C86.77934679 55.2566089 82.3420785 78.58252323 73 102 C71.205625 101.505 71.205625 101.505 69.375 101 C61.18715302 99.23070184 52.3309251 98.19382123 44.8125 102.4375 C43.54107654 103.29078802 42.27015195 104.14482043 41 105 C39.515 105.495 39.515 105.495 38 106 C36.8499169 107.96672915 36.8499169 107.96672915 36 110 C34.24560837 111.75439163 31.94502544 111.11982963 29.60829163 111.12442017 C28.8357756 111.12082489 28.06325958 111.11722961 27.26733398 111.11352539 C26.05279541 111.11374443 26.05279541 111.11374443 24.8137207 111.1139679 C22.12448492 111.11326854 19.43531751 111.1054751 16.74609375 111.09765625 C14.88664284 111.09579215 13.02719144 111.09436821 11.16773987 111.09336853 C6.26370904 111.08954271 1.35970764 111.07971188 -3.54431152 111.06866455 C-8.54451092 111.05845181 -13.54471506 111.05387121 -18.54492188 111.04882812 C-28.36329421 111.03808967 -38.18164466 111.02101248 -48 111 C-48 113.31 -48 115.62 -48 118 C-21.6 118 4.8 118 32 118 C32 137.45454545 32 137.45454545 31 142 C27.51337277 144.32441815 26.17422077 144.24401741 22.05981445 144.22705078 C20.22825554 144.22682419 20.22825554 144.22682419 18.35969543 144.22659302 C17.04087875 144.21627045 15.72206207 144.20594788 14.36328125 144.1953125 C12.99993599 144.19158161 11.63658804 144.188735 10.27323914 144.18673706 C6.68765846 144.17910653 3.10224021 144.15946315 -0.48327637 144.1373291 C-4.14312544 144.11685811 -7.80300079 144.10773267 -11.46289062 144.09765625 C-18.64200107 144.0762166 -25.82097776 144.04208779 -33 144 C-33 145.98 -33 147.96 -33 150 C-14.85 150 3.3 150 22 150 C22.020625 154.455 22.04125 158.91 22.0625 163.5 C22.092229 164.88896484 22.12195801 166.27792969 22.15258789 167.70898438 C22.00775276 176.63340353 22.00775276 176.63340353 19.10766602 180.56616211 C16.83839302 182.61098338 14.55447942 184.33002506 12 186 C10.58654297 187.05380859 10.58654297 187.05380859 9.14453125 188.12890625 C8.37496094 188.60199219 7.60539062 189.07507813 6.8125 189.5625 C6.03519531 190.05878906 5.25789063 190.55507812 4.45703125 191.06640625 C1.15401334 192.32144803 -0.61759367 191.98046968 -4 191 C-21.18512234 181.67543821 -35.98645697 164.91063626 -47 149 C-47.40476563 148.42362793 -47.80953125 147.84725586 -48.2265625 147.25341797 C-67.25357904 120.06258566 -80.68188414 89.09314655 -85 56 C-85.12890625 55.11183594 -85.2578125 54.22367188 -85.390625 53.30859375 C-86.35729365 45.58796388 -86.08671462 37.76577559 -86 30 C-85.41323486 29.93006836 -84.82646973 29.86013672 -84.22192383 29.78808594 C-38.25578789 24.45257454 -38.25578789 24.45257454 0 0 Z " fill="#B1D3EA" transform="translate(106,23)"/>
<path d="M0 0 C34.65 0 69.3 0 105 0 C104.34 0.33 103.68 0.66 103 1 C102.71640625 1.59296875 102.4328125 2.1859375 102.140625 2.796875 C94.9324625 16.71949024 74.43719328 23.70532613 60.41259766 28.265625 C53.70658406 30.30688071 46.8861988 31.72158785 40 33 C39.26958496 33.13889648 38.53916992 33.27779297 37.78662109 33.42089844 C25.92435056 35.64621955 14.01635515 36.9338307 2 38 C0.05250163 97.10657546 20.3856553 156.11829702 60.4375 200.1875 C61.95796128 201.79201931 63.47875279 203.39622581 65 205 C66.17292085 206.36966886 67.34003308 207.74434332 68.5 209.125 C78.09381239 220.07663734 90.61740431 230.11165789 104 236 C104 236.33 104 236.66 104 237 C69.68 237 35.36 237 0 237 C0 158.79 0 80.58 0 0 Z " fill="#FDFEFE" transform="translate(0,0)"/>
<path d="M0 0 C0.90306381 -0.00137466 1.80612762 -0.00274933 2.73655701 -0.00416565 C4.22656471 0.00122726 4.22656471 0.00122726 5.74667358 0.00672913 C7.31255974 0.00651009 7.31255974 0.00651009 8.91007996 0.00628662 C12.37304741 0.0069853 15.83596158 0.01477561 19.29891968 0.02259827 C21.69502737 0.02446261 24.09113544 0.02588643 26.48724365 0.02688599 C32.80344693 0.03070991 39.11962732 0.04053914 45.43582153 0.05158997 C51.8771636 0.06180677 58.31850935 0.06638419 64.75985718 0.07142639 C77.40570029 0.0821615 90.05152752 0.09904506 102.69735718 0.12025452 C102.72246403 7.80254079 102.74033302 15.484811 102.75228882 23.16712952 C102.75727956 25.77390454 102.7640745 28.38067681 102.77279663 30.98744202 C102.89368434 68.07863621 102.89368434 68.07863621 99.44735718 84.93275452 C99.11139526 86.60785095 99.11139526 86.60785095 98.76864624 88.31678772 C95.06924616 106.40778805 89.74714086 123.03622496 82.69735718 140.12025452 C81.70735718 140.12025452 80.71735718 140.12025452 79.69735718 140.12025452 C77.50479712 135.86410853 77.44167098 132.6374633 78.69735718 128.12025452 C79.40436448 126.23678705 80.13686425 124.36282396 80.88485718 122.49525452 C91.00248926 96.87951549 94.20892731 70.44746383 95.69735718 43.12025452 C94.99828247 43.12968079 94.29920776 43.13910706 93.57894897 43.14881897 C59.40040576 43.41340829 22.80300158 34.13671695 -2.30264282 10.12025452 C-3.25139282 10.96587952 -4.20014282 11.81150452 -5.17764282 12.68275452 C-28.82390621 32.75622264 -63.89128014 43.47655321 -94.74014282 43.18275452 C-95.97635376 43.17373108 -97.2125647 43.16470764 -98.48623657 43.15541077 C-99.41565063 43.1438092 -100.3450647 43.13220764 -101.30264282 43.12025452 C-100.97670309 59.38464692 -99.19962338 75.11504666 -96.30264282 91.12025452 C-96.16519653 91.90174866 -96.02775024 92.6832428 -95.88613892 93.48841858 C-88.82599039 132.22504033 -67.35810169 170.21001978 -40.52139282 198.74525452 C-38.58846509 200.81430392 -36.78774402 202.93493542 -34.99014282 205.12025452 C-27.17363922 214.05340149 -16.31713994 223.43077085 -5.30264282 228.12025452 C-0.61662954 227.9815437 2.35305935 226.38718998 6.19735718 223.80775452 C7.14223999 223.18127014 8.0871228 222.55478577 9.06063843 221.90931702 C10.36581421 221.02373108 10.36581421 221.02373108 11.69735718 220.12025452 C12.92621232 219.30728343 14.15530354 218.4946688 15.38485718 217.68275452 C16.52954468 216.90931702 16.52954468 216.90931702 17.69735718 216.12025452 C19.25985718 218.43275452 19.25985718 218.43275452 20.69735718 221.12025452 C19.28275344 225.36406574 16.16858478 226.78682439 12.57235718 229.12025452 C11.92009155 229.55853577 11.26782593 229.99681702 10.59579468 230.44837952 C0.27803318 237.24500018 0.27803318 237.24500018 -4.88858032 236.99525452 C-14.55278396 233.49237164 -22.67190626 226.82119544 -30.30264282 220.12025452 C-30.79796509 219.68664612 -31.29328735 219.25303772 -31.80361938 218.80628967 C-75.93501486 179.95665169 -103.078522 122.2587196 -108.30264282 64.12025452 C-108.73141294 55.52526358 -109.04761313 46.70642268 -108.30264282 38.12025452 C-106.59106733 36.40867902 -104.26828758 36.74682879 -101.92373657 36.54212952 C-70.0932492 33.5735999 -34.55605611 29.03750313 -10.30264282 6.12025452 C-8.9637672 4.45803684 -7.62935472 2.79219683 -6.30264282 1.12025452 C-3.96337225 -0.04938077 -2.60587634 -0.00305138 0 0 Z " fill="#0773BF" transform="translate(109.30264282226563,-0.1202545166015625)"/>
<path d="M0 0 C5.22868926 2.47674755 8.39218853 6.87034401 10.6875 12.0625 C11.5092943 16.76082848 11.57262549 21.36348712 11.5625 26.125 C11.583125 27.37216797 11.60375 28.61933594 11.625 29.90429688 C11.67179554 32.95770593 11.69196866 36.00880818 11.6875 39.0625 C12.595 39.454375 13.5025 39.84625 14.4375 40.25 C18.03038815 42.25372608 19.51158917 43.58905429 21.6875 47.0625 C22.07852343 50.04276251 22.24949479 52.64239936 22.21875 55.6171875 C22.22449036 56.84684738 22.22449036 56.84684738 22.23034668 58.10134888 C22.23306151 59.83108756 22.22573029 61.56086759 22.20898438 63.29052734 C22.1876218 65.92249362 22.20877018 68.55171346 22.234375 71.18359375 C22.23173057 72.86979764 22.22660321 74.55599983 22.21875 76.2421875 C22.22684692 77.02157684 22.23494385 77.80096619 22.24328613 78.60397339 C22.14895361 84.17117436 21.0295094 87.5556557 17.6875 92.0625 C13.22337415 95.09582967 7.30597309 94.36809635 2.09375 94.36328125 C1.06946899 94.36756638 0.04518799 94.3718515 -1.01013184 94.37626648 C-3.17194887 94.38199979 -5.33378519 94.38251742 -7.49560547 94.37817383 C-10.80079021 94.3750112 -14.10508191 94.39849529 -17.41015625 94.42382812 C-19.51301971 94.42610096 -21.61588556 94.42680469 -23.71875 94.42578125 C-24.70532593 94.434991 -25.69190186 94.44420074 -26.70837402 94.45368958 C-35.67043319 94.39330531 -35.67043319 94.39330531 -39.3125 91.0625 C-42.52071487 86.28593177 -42.76756464 82.14892898 -42.74609375 76.59375 C-42.7513356 75.79521606 -42.75657745 74.99668213 -42.76197815 74.1739502 C-42.76837427 72.49309446 -42.76709269 70.81219382 -42.75854492 69.13134766 C-42.75002436 66.5698233 -42.7788439 64.01052384 -42.81054688 61.44921875 C-42.81215896 59.8098965 -42.81158121 58.17057032 -42.80859375 56.53125 C-42.81982773 55.77171021 -42.83106171 55.01217041 -42.84263611 54.22961426 C-42.77570805 49.08603309 -41.72443428 46.12752229 -38.3125 42.0625 C-35.0625 40.1875 -35.0625 40.1875 -32.3125 39.0625 C-32.30839111 38.28648437 -32.30428223 37.51046875 -32.30004883 36.7109375 C-32.26695078 33.16070876 -32.19628564 29.61215906 -32.125 26.0625 C-32.11629883 24.23138672 -32.11629883 24.23138672 -32.10742188 22.36328125 C-31.92881877 15.02070924 -31.361542 9.6303839 -26.3125 4.0625 C-18.55021194 -3.03747679 -9.53003691 -4.08634266 0 0 Z " fill="#0772BF" transform="translate(174.3125,128.9375)"/>
<path d="M0 0 C34.32 0 68.64 0 104 0 C104 12.87 104 25.74 104 39 C103.34 38.67 102.68 38.34 102 38 C99.36062839 37.63401862 96.72967739 37.31235752 94.08203125 37.01953125 C92.42890709 36.82736285 90.77591695 36.63403888 89.12304688 36.43969727 C88.25542725 36.33795197 87.38780762 36.23620667 86.49389648 36.13137817 C54.44215244 32.31970703 21.33271738 26.66589672 0 0 Z " fill="#FCFDFE" transform="translate(108,0)"/>
<path d="M0 0 C0.886875 0.804375 1.77375 1.60875 2.6875 2.4375 C11.99917816 10.36273111 21.69311043 16.36274403 33 21 C33.83273438 21.35578125 34.66546875 21.7115625 35.5234375 22.078125 C51.99865752 28.62663517 70.59637683 31.74840152 88.1875 33.125 C89.23486328 33.21136719 90.28222656 33.29773437 91.36132812 33.38671875 C93.9072012 33.59596859 96.4533611 33.80032656 99 34 C99.75798007 62.55058278 96.20086166 100.69870752 80 125 C78.99611601 120.54125992 79.06264248 117.71324278 80.546875 113.40234375 C80.8960498 112.35989502 81.24522461 111.31744629 81.60498047 110.2434082 C81.98283691 109.1524585 82.36069336 108.06150879 82.75 106.9375 C83.5009686 104.68087332 84.24841004 102.42306956 84.9921875 100.1640625 C85.34635742 99.0905957 85.70052734 98.01712891 86.06542969 96.91113281 C87.74846528 91.66857367 89.00741997 86.41814365 90 81 C90.20238281 80.04351562 90.40476563 79.08703125 90.61328125 78.1015625 C92.91736741 65.40557754 92.75812 51.84726714 92 39 C90.47707934 37.47707934 88.99437207 37.73369269 86.87109375 37.5703125 C86.00919434 37.49901123 85.14729492 37.42770996 84.25927734 37.35424805 C83.32809082 37.27859619 82.3969043 37.20294434 81.4375 37.125 C53.68191738 34.64372683 23.09932223 29.19578307 3.75390625 7.46875 C1.87015794 5.57197998 1.87015794 5.57197998 -2 6 C-3.39225106 7.62995246 -4.77769184 9.26629991 -6.125 10.93359375 C-24.32444302 30.99089658 -59.3465742 36.25648045 -84.9375 37.6875 C-86.10152344 37.73261719 -87.26554687 37.77773438 -88.46484375 37.82421875 C-90.93564934 37.71681548 -90.93564934 37.71681548 -92 39 C-92.73376181 53.28013376 -91.41303641 66.94527088 -89 81 C-88.76879087 82.44910081 -88.53828196 83.89831359 -88.30859375 85.34765625 C-86.78348027 94.57327047 -84.24669955 103.23760065 -81 112 C-80.319375 113.83691406 -80.319375 113.83691406 -79.625 115.7109375 C-75.9988859 125.11124416 -71.7108615 134.09744237 -67 143 C-66.52457764 143.90298828 -66.52457764 143.90298828 -66.03955078 144.82421875 C-58.42902542 159.12206423 -48.44271196 173.88459175 -36.74609375 185.17578125 C-35 187 -35 187 -35 189 C-34.01 189.33 -33.02 189.66 -32 190 C-30.3125 191.4375 -30.3125 191.4375 -29 193 C-29 193.66 -29 194.32 -29 195 C-28.41089844 195.26554688 -27.82179688 195.53109375 -27.21484375 195.8046875 C-24.94187646 197.03136826 -23.42206649 198.3441234 -21.5625 200.125 C-18.06021126 203.25274754 -14.34748988 205.88505262 -10.375 208.375 C-9.31023437 209.04273438 -8.24546875 209.71046875 -7.1484375 210.3984375 C-3.83524736 212.08380717 -1.71737452 212.95240237 2 213 C4.62007932 211.85606239 6.79193198 210.74307548 9.1875 209.25 C9.80302734 208.8890625 10.41855469 208.528125 11.05273438 208.15625 C14.06115098 206.35706694 16.56617187 204.50517814 19 202 C19.66 202 20.32 202 21 202 C21.33 203.98 21.66 205.96 22 208 C21.34 208.20625 20.68 208.4125 20 208.625 C17.31908121 209.85375445 15.43891054 211.09229849 13.125 212.875 C3.66360293 220.11332445 3.66360293 220.11332445 -0.8671875 219.8046875 C-27.83631827 212.87745441 -52.19906592 175.55996753 -65.59667969 153.39160156 C-74.31109047 138.54011095 -81.42622146 123.28655238 -87 107 C-87.40734375 105.81148438 -87.8146875 104.62296875 -88.234375 103.3984375 C-95.57378512 80.64626612 -98.67366362 57.86151076 -98 34 C-96.23076172 33.88785156 -96.23076172 33.88785156 -94.42578125 33.7734375 C-61.61870587 31.3465946 -23.84577019 24.73720085 0 0 Z " fill="#AFD2EA" transform="translate(106,9)"/>
<path d="M0 0 C4.77362277 1.67960801 7.18955888 3.83191666 10 8 C10.45410156 10.86254883 10.45410156 10.86254883 10.390625 13.95703125 C10.37128906 15.62475586 10.37128906 15.62475586 10.3515625 17.32617188 C10.31804687 18.47666016 10.28453125 19.62714844 10.25 20.8125 C10.23195312 21.98232422 10.21390625 23.15214844 10.1953125 24.35742188 C10.1482644 27.2391178 10.08253709 30.11913797 10 33 C7.35171821 34.3241409 5.33319888 34.12957042 2.37109375 34.1328125 C0.69563477 34.13474609 0.69563477 34.13474609 -1.01367188 34.13671875 C-2.18478516 34.13285156 -3.35589844 34.12898438 -4.5625 34.125 C-5.73748047 34.12886719 -6.91246094 34.13273437 -8.12304688 34.13671875 C-9.79657227 34.13478516 -9.79657227 34.13478516 -11.50390625 34.1328125 C-12.53330322 34.13168457 -13.5627002 34.13055664 -14.62329102 34.12939453 C-17 34 -17 34 -18 33 C-18.33799828 28.94615981 -18.32516468 24.87860919 -18.375 20.8125 C-18.41238281 19.67490234 -18.44976562 18.53730469 -18.48828125 17.36523438 C-18.58739532 7.93287903 -18.58739532 7.93287903 -15.6640625 4.32421875 C-10.33861881 -0.32187949 -6.85319516 -0.68425037 0 0 Z " fill="#FCFDFE" transform="translate(168,134)"/>
<path d="M0 0 C35.97 0 71.94 0 109 0 C109 1.32 109 2.64 109 4 C103.16918442 6.00621866 97.97979384 6.27457763 91.84204102 6.22705078 C90.34821144 6.22748886 90.34821144 6.22748886 88.82420349 6.22793579 C85.55068073 6.22654864 82.27738898 6.21101629 79.00390625 6.1953125 C76.72704696 6.19158019 74.45018606 6.18873425 72.17332458 6.18673706 C66.19417857 6.1791178 60.21513042 6.15948392 54.23602295 6.1373291 C48.12936731 6.1168339 42.02269578 6.10772749 35.91601562 6.09765625 C23.94396752 6.07623646 11.97199192 6.0421211 0 6 C0 4.02 0 2.04 0 0 Z " fill="#0071BE" transform="translate(52,118)"/>
<path d="M0 0 C26.07 0 52.14 0 79 0 C79 2.31 79 4.62 79 7 C52.93 7 26.86 7 0 7 C0 4.69 0 2.38 0 0 Z " fill="#187BC2" transform="translate(58,150)"/>
<path d="M0 0 C1.4540625 0.0309375 1.4540625 0.0309375 2.9375 0.0625 C2.3956714 6.71966974 1.07549342 12.57677596 -1.00390625 18.91015625 C-1.29103989 19.80745956 -1.57817352 20.70476288 -1.87400818 21.6292572 C-2.78305198 24.46380405 -3.70380179 27.29438283 -4.625 30.125 C-5.24752593 32.05899353 -5.8692783 33.99323624 -6.49023438 35.92773438 C-8.00539793 40.64224993 -9.53106383 45.35324646 -11.0625 50.0625 C-13.3725 50.0625 -15.6825 50.0625 -18.0625 50.0625 C-17.55154436 41.99979318 -15.30100925 34.8867013 -12.75 27.25 C-12.35876953 26.05568359 -11.96753906 24.86136719 -11.56445312 23.63085938 C-10.78681526 21.26183655 -10.00419582 18.89444244 -9.21630859 16.52880859 C-8.44137645 14.20073271 -7.67356914 11.87027414 -6.91259766 9.53759766 C-6.37771729 7.90443604 -6.37771729 7.90443604 -5.83203125 6.23828125 C-5.35600464 4.77708862 -5.35600464 4.77708862 -4.87036133 3.28637695 C-3.70398865 0.07559161 -3.70398865 0.07559161 0 0 Z " fill="#0673BF" transform="translate(114.0625,51.9375)"/>
<path d="M0 0 C0.99 0.33 1.98 0.66 3 1 C3.3359375 4.19140625 3.3359375 4.19140625 3 8 C0.6640625 10.65234375 0.6640625 10.65234375 -2.375 12.9375 C-3.37273437 13.70964844 -4.37046875 14.48179688 -5.3984375 15.27734375 C-8 17 -8 17 -10 17 C-7.70508645 19.3666296 -5.49231068 21.61688947 -2.88671875 23.64453125 C2.89793265 28.19621966 2.89793265 28.19621966 3.5 32.9375 C3.2525 34.4534375 3.2525 34.4534375 3 36 C-2.18159675 35.5780139 -5.14484569 32.87129731 -9 29.6875 C-9.60328125 29.20087891 -10.2065625 28.71425781 -10.828125 28.21289062 C-12.00700204 27.26081928 -13.18289789 26.30504217 -14.35546875 25.34521484 C-16.55584352 23.54532396 -18.7773329 21.77224025 -21 20 C-20.76458325 16.66492944 -19.75894791 15.76558558 -17.3046875 13.37890625 C-16.17020305 12.42955525 -15.02646971 11.49117637 -13.875 10.5625 C-12.98965576 9.83498535 -12.98965576 9.83498535 -12.08642578 9.09277344 C-10.40037815 7.71627542 -8.70284082 6.3556341 -7 5 C-6.236875 4.38511719 -5.47375 3.77023438 -4.6875 3.13671875 C-2.875 1.75 -2.875 1.75 0 0 Z " fill="#0673BF" transform="translate(85,58)"/>
<path d="M0 0 C4.23350739 0.54592674 7.08188058 3.11549625 10.3125 5.6875 C10.88701904 6.13722168 11.46153809 6.58694336 12.0534668 7.05029297 C16.1312631 10.25974972 20.11107846 13.56327863 24 17 C22.62137225 20.20334595 21.12739156 21.99724415 18.41015625 24.1640625 C17.70826172 24.72867188 17.00636719 25.29328125 16.28320312 25.875 C15.55037109 26.4525 14.81753906 27.03 14.0625 27.625 C13.33353516 28.21023437 12.60457031 28.79546875 11.85351562 29.3984375 C3.5939919 36 3.5939919 36 0 36 C-0.66235885 32.68820575 -0.96193668 31.16659155 0 28 C3.29911908 24.48419002 6.95808503 21.62178268 11 19 C11.66 19 12.32 19 13 19 C13 18.34 13 17.68 13 17 C12.43796875 16.73445313 11.8759375 16.46890625 11.296875 16.1953125 C7.08637456 14.0041337 3.23156478 11.50255553 0 8 C-0.78785348 4.97020103 -0.49847135 3.15698519 0 0 Z " fill="#0572BE" transform="translate(125,59)"/>
<path d="M0 0 C12.87 0 25.74 0 39 0 C39 1.98 39 3.96 39 6 C26.13 6 13.26 6 0 6 C0 4.02 0 2.04 0 0 Z " fill="#0070BD" transform="translate(88,183)"/>
<path d="M0 0 C12.54 0 25.08 0 38 0 C38 1.32 38 2.64 38 4 C25.46 4 12.92 4 0 4 C0 2.68 0 1.36 0 0 Z " fill="#F0F6FA" transform="translate(145,205)"/>
<path d="M0 0 C11.88 0 23.76 0 36 0 C36.495 1.98 36.495 1.98 37 4 C24.46 4 11.92 4 -1 4 C-0.67 2.68 -0.34 1.36 0 0 Z " fill="#F2F7FB" transform="translate(146,193)"/>
<path d="M0 0 C11.88 0 23.76 0 36 0 C36.495 1.98 36.495 1.98 37 4 C24.46 4 11.92 4 -1 4 C-0.67 2.68 -0.34 1.36 0 0 Z " fill="#F0F5FA" transform="translate(146,181)"/>
<path d="M0 0 C0.33 0.66 0.66 1.32 1 2 C1.66 2 2.32 2 3 2 C2.67 3.98 2.34 5.96 2 8 C0.68 8.33 -0.64 8.66 -2 9 C-1.34 6.03 -0.68 3.06 0 0 Z " fill="#B7D6EC" transform="translate(191,109)"/>
<path d="M0 0 C0.99 0 1.98 0 3 0 C2.01 2.97 1.02 5.94 0 9 C-2 6 -2 6 -1.6875 3.375 C-1 1 -1 1 0 0 Z " fill="#A6CCE7" transform="translate(190,117)"/>
</svg>
