<?xml version="1.0" encoding="UTF-8"?>
<svg version="1.1" xmlns="http://www.w3.org/2000/svg" width="512" height="512">
<path d="M0 0 C1.04414062 0.91265625 1.04414062 0.91265625 2.109375 1.84375 C3.33604365 2.86758368 4.56479428 3.88893565 5.796875 4.90625 C6.56 5.545625 7.323125 6.185 8.109375 6.84375 C7.54321516 10.72725268 5.77092853 12.60145314 3.109375 15.40625 C-0.19025779 18.96170875 -3.3472476 22.56631855 -6.390625 26.34375 C-9.2987588 29.9385265 -12.27603832 33.42635628 -15.390625 36.84375 C-19.31727909 41.15282606 -23.00560722 45.61724034 -26.671875 50.1484375 C-29.9648751 54.14873692 -33.41190906 58.00484003 -36.890625 61.84375 C-40.30391552 60.42786652 -42.8977829 58.27140875 -45.7097168 55.90917969 C-74.59386519 31.70884525 -112.54591343 20.0746179 -150.09765625 23.15234375 C-189.56382624 26.9816622 -225.34352919 45.90783884 -250.89453125 76.359375 C-267.91947417 97.49780136 -278.30523443 123.05371164 -281.890625 149.84375 C-282.02082031 150.73835937 -282.15101563 151.63296875 -282.28515625 152.5546875 C-282.93218605 157.74818002 -282.92911785 162.92565131 -282.91015625 168.15234375 C-282.90874634 168.89319214 -282.90733643 169.63404053 -282.90588379 170.39733887 C-282.90222503 172.21281268 -282.89662104 174.0282824 -282.890625 175.84375 C-281.33952026 175.86562378 -281.33952026 175.86562378 -279.75708008 175.88793945 C-275.90826418 175.94605882 -272.06002501 176.02329023 -268.21166992 176.10620117 C-266.54835392 176.13938655 -264.88492704 176.16743834 -263.22143555 176.19018555 C-260.82553001 176.22384999 -258.43063465 176.2761694 -256.03515625 176.33203125 C-254.92549248 176.34161613 -254.92549248 176.34161613 -253.79341125 176.35139465 C-247.91788467 176.51745638 -244.7445246 177.9898504 -240.640625 182.09375 C-238.45516732 185.52804064 -237.96079243 187.77403902 -237.890625 191.84375 C-239.50012217 198.28173867 -243.74188621 202.21235654 -248.21875 206.9609375 C-250.69592194 209.63367565 -252.99203606 212.37261494 -255.265625 215.21875 C-259.13216684 220.0143549 -263.23914483 224.51253667 -267.4465332 229.00512695 C-271.36955224 233.21786123 -275.00966219 237.60779453 -278.61328125 242.09765625 C-281.10888969 245.10694052 -283.72827643 247.98313654 -286.390625 250.84375 C-290.65164697 255.42252814 -294.63385283 260.15888352 -298.5546875 265.03515625 C-301.63478731 268.73848696 -304.882185 272.26980923 -308.17382812 275.78515625 C-310.58320921 278.36739191 -312.83768358 280.96827244 -314.890625 283.84375 C-317.80467558 283.51127443 -318.81256553 282.92613752 -320.86328125 280.76171875 C-321.55292969 279.86066406 -322.24257813 278.95960938 -322.953125 278.03125 C-326.28575796 273.80115923 -329.71275728 269.77579496 -333.390625 265.84375 C-336.84323508 262.13609727 -340.15590635 258.35861646 -343.328125 254.40625 C-346.69408765 250.22137693 -350.22238517 246.26060602 -353.890625 242.34375 C-358.34934695 237.58283666 -362.52860124 232.67907437 -366.61328125 227.58984375 C-369.1088944 224.58055379 -371.72837624 221.70446148 -374.390625 218.84375 C-378.77767383 214.12646853 -382.93496722 209.2759704 -386.94140625 204.2265625 C-388.77029232 201.90156272 -388.77029232 201.90156272 -390.55859375 200.2109375 C-393.69990235 197.13122318 -394.29330998 194.5848366 -394.515625 190.34375 C-394.34132852 186.68352385 -393.96426848 184.20279094 -391.703125 181.28125 C-386.97715113 177.18540598 -383.23635465 176.59400789 -377.05859375 176.6484375 C-375.12016602 176.65810547 -375.12016602 176.65810547 -373.14257812 176.66796875 C-371.7877577 176.68467673 -370.43293999 176.70160658 -369.078125 176.71875 C-367.70378249 176.72878997 -366.32943297 176.73791404 -364.95507812 176.74609375 C-361.60008183 176.76963758 -358.24544301 176.80252433 -354.890625 176.84375 C-354.92542969 175.62945312 -354.96023438 174.41515625 -354.99609375 173.1640625 C-355.86486361 128.64511942 -344.18383712 82.30236754 -317.890625 45.84375 C-317.17648437 44.84085937 -316.46234375 43.83796875 -315.7265625 42.8046875 C-301.89184658 23.8858357 -285.85296982 6.68626172 -266.890625 -7.15625 C-266.045 -7.7853125 -265.199375 -8.414375 -264.328125 -9.0625 C-186.60618188 -65.30864305 -73.40618323 -62.65241117 0 0 Z " fill="#609CED" transform="translate(393.890625,88.15625)"/>
<path d="M0 0 C2.88699029 0.33509709 3.90744277 0.90221777 5.9375 3.046875 C6.618125 3.93890625 7.29875 4.8309375 8 5.75 C11.49759034 10.19101931 15.12688151 14.38385268 19 18.5 C23.45992086 23.25972392 27.63806889 28.16479107 31.72265625 33.25390625 C34.2182639 36.26318958 36.83763481 39.13940286 39.5 42 C42.95161936 45.70861688 46.26522148 49.48505895 49.4375 53.4375 C52.80347653 57.62239032 56.33188709 61.58300618 60 65.5 C65.27230238 71.13320154 70.19716784 76.95772728 75 83 C75.73089844 83.81597656 76.46179688 84.63195312 77.21484375 85.47265625 C80.2169188 89.72285878 79.84987514 94.00332028 79 99 C77.36620874 102.38810811 75.14386188 104.42701349 71.7512207 106.12646484 C68.46998671 107.16828357 65.60907469 107.32310816 62.16796875 107.4140625 C60.87568359 107.45273437 59.58339844 107.49140625 58.25195312 107.53125 C56.89714005 107.56270014 55.54232225 107.59394761 54.1875 107.625 C52.81312728 107.6632175 51.43877756 107.7022714 50.06445312 107.7421875 C46.70977011 107.83635404 43.35509107 107.921982 40 108 C39.93530518 108.67240723 39.87061035 109.34481445 39.80395508 110.03759766 C35.20456818 156.55259885 20.47377738 200.45736927 -11 236 C-11.67804688 236.78632813 -12.35609375 237.57265625 -13.0546875 238.3828125 C-23.6884033 250.49667921 -35.01975937 261.44097121 -48 271 C-49.27423828 271.94939453 -49.27423828 271.94939453 -50.57421875 272.91796875 C-96.76287347 306.28068299 -155.37827091 319.31828258 -211.51806641 310.609375 C-248.24170338 304.41589026 -284.85833294 289.86887946 -313 265 C-308.89118925 259.24636909 -304.37167131 254.05477549 -299.578125 248.859375 C-296.31667203 245.24212716 -293.27295542 241.47264248 -290.21484375 237.68359375 C-287.3439814 234.20514149 -284.31195344 230.89029982 -281.2734375 227.55859375 C-278.0406763 223.92034876 -274.99186896 220.14220237 -271.9453125 216.34765625 C-270.37139584 214.44821064 -268.78331404 212.69919545 -267 211 C-263.97282243 212.39602849 -261.25340288 214.11714487 -258.48608398 215.96923828 C-225.60162455 237.86138157 -186.53974491 245.82943385 -147.7109375 238.1875 C-110.32490637 230.2682494 -77.03218193 207.9642575 -56 176 C-53.10180591 171.45172108 -50.50376407 166.77846036 -48 162 C-47.39414062 160.85402344 -46.78828125 159.70804688 -46.1640625 158.52734375 C-37.9517642 142.36049244 -34.41648215 124.83456321 -32 107 C-32.99854004 107.01571045 -33.99708008 107.0314209 -35.02587891 107.04760742 C-38.74942887 107.10212619 -42.4729439 107.13642934 -46.19677734 107.16479492 C-47.80491072 107.17983176 -49.41300344 107.20026672 -51.02099609 107.22631836 C-53.33962064 107.26292822 -55.65770049 107.27977722 -57.9765625 107.29296875 C-58.68930328 107.30845261 -59.40204407 107.32393646 -60.13638306 107.33988953 C-66.07178312 107.34186662 -70.05998399 105.88758314 -74.3125 101.75 C-76.42060246 98.31457376 -76.93047959 96.0321836 -77 92 C-75.39092304 85.56369215 -71.15131497 81.63428202 -66.67578125 76.88671875 C-64.17803095 74.19206551 -61.85848792 71.42938222 -59.5625 68.5625 C-55.90364231 64.0260327 -52.05131037 59.741339 -48.08398438 55.47851562 C-45.1129881 52.26718772 -42.30046168 48.97381211 -39.5625 45.5625 C-35.71954521 40.78458662 -31.63168671 36.31005016 -27.44384766 31.83837891 C-23.52911657 27.63449863 -19.89531514 23.25510498 -16.30078125 18.7734375 C-13.23576397 15.07876472 -9.99704609 11.56175047 -6.71655273 8.05834961 C-4.30726671 5.4761842 -2.05287377 2.8753828 0 0 Z " fill="#4773CC" transform="translate(433,160)"/>
<path d="M0 0 C51.12595708 0 101.27275939 17.14952302 140 51 C141.22666865 52.02383368 142.45541928 53.04518565 143.6875 54.0625 C144.450625 54.701875 145.21375 55.34125 146 56 C145.43384016 59.88350268 143.66155353 61.75770314 141 64.5625 C137.70036721 68.11795875 134.5433774 71.72256855 131.5 75.5 C128.5918662 79.0947765 125.61458668 82.58260628 122.5 86 C118.57334591 90.30907606 114.88501778 94.77349034 111.21875 99.3046875 C107.9257499 103.30498692 104.47871594 107.16109003 101 111 C97.58670948 109.58411652 94.9928421 107.42765875 92.1809082 105.06542969 C74.0389297 89.86532957 53.07972392 80.14707959 30 75 C28.66388672 74.69835937 28.66388672 74.69835937 27.30078125 74.390625 C18.27895925 72.56691826 9.17379842 71.96566299 0 71 C0 47.57 0 24.14 0 0 Z " fill="#4773CC" transform="translate(256,39)"/>
<path d="M0 0 C3.02717757 1.39602849 5.74659712 3.11714487 8.51391602 4.96923828 C33.89459331 21.86589505 59.77303329 27.81821403 90 31 C90 54.43 90 77.86 90 102 C41.46961517 102 -9.18247142 86.5357655 -46 54 C-41.89118925 48.24636909 -37.37167131 43.05477549 -32.578125 37.859375 C-29.31667203 34.24212716 -26.27295542 30.47264248 -23.21484375 26.68359375 C-20.3439814 23.20514149 -17.31195344 19.89029982 -14.2734375 16.55859375 C-11.0406763 12.92034876 -7.99186896 9.14220237 -4.9453125 5.34765625 C-3.37139584 3.44821064 -1.78331404 1.69919545 0 0 Z " fill="#609CED" transform="translate(166,371)"/>
<path d="M0 0 C1.32 0.33 2.64 0.66 4 1 C3 3 3 3 1.171875 3.8984375 C-1.30329117 5.15382753 -2.83031196 6.63147781 -4.75 8.625 C-5.36359375 9.25664062 -5.9771875 9.88828125 -6.609375 10.5390625 C-7.06828125 11.02117187 -7.5271875 11.50328125 -8 12 C-8 8.03869629 -6.65122875 7.17085599 -4 4.3125 C-3.2575 3.50425781 -2.515 2.69601563 -1.75 1.86328125 C-1.1725 1.24839844 -0.595 0.63351563 0 0 Z " fill="#4D7ED7" transform="translate(433,160)"/>
</svg>
