<?xml version="1.0" encoding="UTF-8"?>
<svg version="1.1" xmlns="http://www.w3.org/2000/svg" width="167" height="167">
<path d="M0 0 C55.11 0 110.22 0 167 0 C167 55.11 167 110.22 167 167 C111.89 167 56.78 167 0 167 C0 111.89 0 56.78 0 0 Z " fill="#014351" transform="translate(0,0)"/>
<path d="M0 0 C1.04487328 -0.00143509 1.04487328 -0.00143509 2.1108551 -0.00289917 C3.56535941 -0.00357346 5.01986687 -0.00177218 6.47436523 0.00244141 C8.71019082 0.00785801 10.94582071 0.00244204 13.18164062 -0.00390625 C14.60026086 -0.00324645 16.01888097 -0.00196733 17.4375 0 C19.36420532 0.00169189 19.36420532 0.00169189 21.32983398 0.00341797 C24.25390625 0.1328125 24.25390625 0.1328125 25.25390625 1.1328125 C28.71018848 1.79457332 32.17170166 2.37362141 35.64453125 2.93945312 C40.29985697 3.72209935 44.7391229 4.74963617 49.25390625 6.1328125 C47.64366931 10.23159744 44.67597835 12.89519371 41.56640625 15.8828125 C38.00727483 19.36072884 34.54177339 22.83658392 31.31640625 26.6328125 C28.85053195 29.532443 26.23024953 31.75173788 23.25390625 34.1328125 C22.19301067 35.30316555 21.15371125 36.4932308 20.12890625 37.6953125 C15.48130041 43.14671713 10.35676756 48.11299956 5.25390625 53.1328125 C0.3713683 51.28725988 -2.75541155 47.09298672 -6.1484375 43.30078125 C-8.77697855 40.52434275 -10.21359181 39.20172452 -14.06640625 38.703125 C-16.6589846 38.85029218 -16.6589846 38.85029218 -17.74609375 40.1328125 C-18.46112806 42.84268433 -18.46112806 42.84268433 -17.74609375 46.1328125 C-15.5504697 49.03699667 -12.92381464 51.42702883 -10.24609375 53.8828125 C-8.83583348 55.20667845 -7.42936523 56.53459947 -6.02734375 57.8671875 C-5.39892578 58.44694336 -4.77050781 59.02669922 -4.12304688 59.62402344 C-2.74609375 61.1328125 -2.74609375 61.1328125 -2.74609375 63.1328125 C0.72304228 65.26766544 3.21540665 65.72510188 7.25390625 65.1328125 C9.97982818 63.2035227 12.16977831 60.8190737 14.4453125 58.38671875 C15.11304184 57.70101303 15.78077118 57.01530731 16.46873474 56.30882263 C18.59944843 54.11809586 20.70926892 51.90870821 22.81640625 49.6953125 C24.92875692 47.48728463 27.04532169 45.28404396 29.17478943 43.09251404 C30.49857761 41.72923724 31.81239427 40.35618985 33.11488342 38.97254944 C36.41421054 35.56523077 38.37163744 33.64294873 43.25390625 33.1328125 C45.56998499 30.67648177 45.56998499 30.67648177 47.25390625 28.1328125 C50.25390625 29.1328125 50.25390625 29.1328125 51.25390625 31.1328125 C52.24390625 30.1428125 53.23390625 29.1528125 54.25390625 28.1328125 C55.36117939 47.32554689 44.87754411 68.85482546 32.33349609 83.03955078 C27.14264629 88.63775106 21.60566397 93.80618008 15.69140625 98.6328125 C15.12010986 99.10823486 14.54881348 99.58365723 13.96020508 100.07348633 C11.47718725 101.99948993 9.86544544 103.13466285 6.671875 103.125 C-11.04444582 95.85529808 -25.4495267 76.17231747 -32.74609375 59.1328125 C-34.60168394 54.51762665 -36.2391242 49.87281957 -37.74609375 45.1328125 C-38.06835938 44.16472656 -38.390625 43.19664063 -38.72265625 42.19921875 C-41.87006725 31.12445015 -41.01797255 19.53638518 -40.74609375 8.1328125 C-34.74080069 5.85827627 -28.86845827 3.72503883 -22.55859375 2.4453125 C-21.45128906 2.21457031 -20.34398437 1.98382813 -19.203125 1.74609375 C-12.74399417 0.60023664 -6.56186951 0.00572696 0 0 Z " fill="#02384B" transform="translate(77.74609375,35.8671875)"/>
<path d="M0 0 C0.76707275 0.19295654 1.53414551 0.38591309 2.32446289 0.5847168 C7.27141146 1.93198724 11.26875168 3.85564913 15.625 6.5625 C15.9375 9.25 15.9375 9.25 15.625 12.5625 C13.625 14.875 13.625 14.875 12.26171875 16.0625 C9.37176134 18.71105285 6.93593133 21.79079655 4.39453125 24.76953125 C3.81058594 25.36121094 3.22664063 25.95289062 2.625 26.5625 C1.965 26.5625 1.305 26.5625 0.625 26.5625 C-0.035 27.8825 -0.695 29.2025 -1.375 30.5625 C-2.035 30.5625 -2.695 30.5625 -3.375 30.5625 C-3.63222839 31.14308167 -3.88945679 31.72366333 -4.15447998 32.32183838 C-5.48530778 34.76500582 -6.9589068 36.42684116 -8.90332031 38.41308594 C-9.62457092 39.15355164 -10.34582153 39.89401733 -11.08892822 40.65692139 C-11.86911316 41.44560608 -12.6492981 42.23429077 -13.453125 43.046875 C-14.25731873 43.86246887 -15.06151245 44.67806274 -15.89007568 45.51837158 C-17.59200814 47.23918279 -19.29685767 48.9571131 -21.00439453 50.67236328 C-23.6152651 53.30269254 -26.20404629 55.95355787 -28.79296875 58.60546875 C-30.44919652 60.2747525 -32.10670661 61.94276514 -33.765625 63.609375 C-34.53771301 64.40615662 -35.30980103 65.20293823 -36.10528564 66.02386475 C-41.53326031 71.40744428 -41.53326031 71.40744428 -45.76391602 72.18676758 C-49.50362208 71.29266488 -50.83905147 69.43960753 -53.375 66.5625 C-54.62203103 65.36634051 -55.87934466 64.18084584 -57.14453125 63.00390625 C-58.49245406 61.7112154 -59.84010517 60.41824117 -61.1875 59.125 C-61.88037109 58.48240234 -62.57324219 57.83980469 -63.28710938 57.17773438 C-68.23553579 52.37556687 -68.23553579 52.37556687 -68.94921875 48.21484375 C-68.375 45.5625 -68.375 45.5625 -66.375 43.5625 C-63.7109375 43 -63.7109375 43 -60.375 43.5625 C-57.59934784 45.59868108 -55.33189247 48.04074573 -53 50.5625 C-52.35933594 51.23023438 -51.71867187 51.89796875 -51.05859375 52.5859375 C-49.48299808 54.23208223 -47.92309281 55.89053435 -46.375 57.5625 C-39.36678954 54.28381045 -34.12594539 47.76899993 -29.25 41.875 C-27.22798526 39.44182349 -25.10934019 37.41032428 -22.6875 35.375 C-14.43487287 28.35552405 -7.43146238 19.75088638 -0.375 11.5625 C-1.34695312 11.4284375 -2.31890625 11.294375 -3.3203125 11.15625 C-7.64432355 10.53760056 -11.94695129 9.811824 -16.25 9.0625 C-17.02085938 8.93230469 -17.79171875 8.80210938 -18.5859375 8.66796875 C-24.25817897 7.67932103 -24.25817897 7.67932103 -25.375 6.5625 C-30.3663563 6.27332381 -35.37577862 6.31779549 -40.375 6.3125 C-41.10674438 6.31116058 -41.83848877 6.30982117 -42.59240723 6.30844116 C-53.48850421 6.31279048 -63.76388982 6.90068916 -74.375 9.5625 C-76.12490234 9.97435547 -76.12490234 9.97435547 -77.91015625 10.39453125 C-80.74355833 11.08008622 -83.55954456 11.80746672 -86.375 12.5625 C-87.70793192 12.89743489 -89.04120176 13.23103185 -90.375 13.5625 C-90.09650434 32.73068436 -88.02549659 48.80161264 -80.375 66.5625 C-79.76591797 68.03783203 -79.76591797 68.03783203 -79.14453125 69.54296875 C-75.09326343 78.53654569 -69.01001231 85.39897464 -62.375 92.5625 C-61.64796875 93.36042969 -60.9209375 94.15835938 -60.171875 94.98046875 C-55.59353263 99.79145047 -50.39444856 104.66570175 -44.375 107.5625 C-39.4160385 107.57066962 -36.16155798 104.43143753 -32.5 101.4375 C-31.87722168 100.93541016 -31.25444336 100.43332031 -30.61279297 99.91601562 C-11.00340546 83.94066139 -0.23314081 62.76953951 4.31933594 38.20239258 C4.55378418 36.93818481 4.55378418 36.93818481 4.79296875 35.6484375 C4.92985107 34.8857959 5.0667334 34.1231543 5.20776367 33.33740234 C5.625 31.5625 5.625 31.5625 6.625 30.5625 C10.0625 30.375 10.0625 30.375 13.625 30.5625 C15.625 32.5625 15.625 32.5625 16 36.1875 C15.40003174 61.06618389 0.97558985 83.97505741 -15.375 101.5625 C-16.17550781 102.42681641 -16.17550781 102.42681641 -16.9921875 103.30859375 C-18.07424519 104.43867175 -19.21730112 105.51004647 -20.375 106.5625 C-21.035 106.5625 -21.695 106.5625 -22.375 106.5625 C-22.375 107.2225 -22.375 107.8825 -22.375 108.5625 C-24.61139227 110.36461266 -26.84282864 112.03814497 -29.1875 113.6875 C-30.15139648 114.38939453 -30.15139648 114.38939453 -31.13476562 115.10546875 C-35.99779063 118.5625 -35.99779063 118.5625 -39.375 118.5625 C-39.375 119.2225 -39.375 119.8825 -39.375 120.5625 C-44.97409446 121.19218539 -47.98263235 119.2408521 -52.25 115.9375 C-52.86496338 115.47746582 -53.47992676 115.01743164 -54.11352539 114.54345703 C-55.32969498 113.63217184 -56.54184247 112.71548928 -57.74951172 111.79296875 C-59.08467477 110.78227158 -60.44712692 109.80772265 -61.81640625 108.84375 C-66.78922608 105.34039356 -70.54550439 101.26730889 -74.375 96.5625 C-75.01308594 95.81097656 -75.65117188 95.05945313 -76.30859375 94.28515625 C-93.70579384 73.36103841 -101.54748556 49.21837345 -101.5625 22.3125 C-101.57474609 21.14203125 -101.58699219 19.9715625 -101.59960938 18.765625 C-101.60154297 17.6415625 -101.60347656 16.5175 -101.60546875 15.359375 C-101.60957764 14.34198242 -101.61368652 13.32458984 -101.61791992 12.27636719 C-101.36433733 9.44337816 -101.0166989 7.875672 -99.375 5.5625 C-71.15397012 -11.32212545 -30.21579104 -7.63857552 0 0 Z " fill="#09C0EB" transform="translate(127.375,30.4375)"/>
<path d="M0 0 C0.76707275 0.19295654 1.53414551 0.38591309 2.32446289 0.5847168 C7.27141146 1.93198724 11.26875168 3.85564913 15.625 6.5625 C15.9375 9.25 15.9375 9.25 15.625 12.5625 C13.625 14.875 13.625 14.875 12.26171875 16.0625 C9.37176134 18.71105285 6.93593133 21.79079655 4.39453125 24.76953125 C3.81058594 25.36121094 3.22664063 25.95289062 2.625 26.5625 C1.965 26.5625 1.305 26.5625 0.625 26.5625 C-0.035 27.8825 -0.695 29.2025 -1.375 30.5625 C-2.035 30.5625 -2.695 30.5625 -3.375 30.5625 C-3.63222839 31.14308167 -3.88945679 31.72366333 -4.15447998 32.32183838 C-5.48530778 34.76500582 -6.9589068 36.42684116 -8.90332031 38.41308594 C-9.62457092 39.15355164 -10.34582153 39.89401733 -11.08892822 40.65692139 C-11.86911316 41.44560608 -12.6492981 42.23429077 -13.453125 43.046875 C-14.25731873 43.86246887 -15.06151245 44.67806274 -15.89007568 45.51837158 C-17.59200814 47.23918279 -19.29685767 48.9571131 -21.00439453 50.67236328 C-23.6152651 53.30269254 -26.20404629 55.95355787 -28.79296875 58.60546875 C-30.44919652 60.2747525 -32.10670661 61.94276514 -33.765625 63.609375 C-34.92375702 64.80454742 -34.92375702 64.80454742 -36.10528564 66.02386475 C-41.53326031 71.40744428 -41.53326031 71.40744428 -45.76391602 72.18676758 C-49.50362208 71.29266488 -50.83905147 69.43960753 -53.375 66.5625 C-54.62203103 65.36634051 -55.87934466 64.18084584 -57.14453125 63.00390625 C-58.49245406 61.7112154 -59.84010517 60.41824117 -61.1875 59.125 C-61.88037109 58.48240234 -62.57324219 57.83980469 -63.28710938 57.17773438 C-68.23553579 52.37556687 -68.23553579 52.37556687 -68.94921875 48.21484375 C-68.375 45.5625 -68.375 45.5625 -66.375 43.5625 C-63.7109375 43 -63.7109375 43 -60.375 43.5625 C-57.59934784 45.59868108 -55.33189247 48.04074573 -53 50.5625 C-52.35933594 51.23023438 -51.71867187 51.89796875 -51.05859375 52.5859375 C-49.48299808 54.23208223 -47.92309281 55.89053435 -46.375 57.5625 C-39.36678954 54.28381045 -34.12594539 47.76899993 -29.25 41.875 C-27.22798526 39.44182349 -25.10934019 37.41032428 -22.6875 35.375 C-14.43487287 28.35552405 -7.43146238 19.75088638 -0.375 11.5625 C-1.34695312 11.4284375 -2.31890625 11.294375 -3.3203125 11.15625 C-7.64432355 10.53760056 -11.94695129 9.811824 -16.25 9.0625 C-17.02085938 8.93230469 -17.79171875 8.80210938 -18.5859375 8.66796875 C-24.25817897 7.67932103 -24.25817897 7.67932103 -25.375 6.5625 C-30.3663563 6.27332381 -35.37577862 6.31779549 -40.375 6.3125 C-41.10674438 6.31116058 -41.83848877 6.30982117 -42.59240723 6.30844116 C-53.48850421 6.31279048 -63.76388982 6.90068916 -74.375 9.5625 C-76.12490234 9.97435547 -76.12490234 9.97435547 -77.91015625 10.39453125 C-80.74355833 11.08008622 -83.55954456 11.80746672 -86.375 12.5625 C-87.70767197 12.89846772 -89.04075694 13.23282689 -90.375 13.5625 C-89.88 12.0775 -89.88 12.0775 -89.375 10.5625 C-88.715 10.2325 -88.055 9.9025 -87.375 9.5625 C-87.375 7.2525 -87.375 4.9425 -87.375 2.5625 C-82.53258367 1.22666101 -78.44062383 0.30921881 -73.375 0.5625 C-73.375 -0.4275 -73.375 -1.4175 -73.375 -2.4375 C-50.20010485 -9.75588794 -23.12965541 -5.84719491 0 0 Z " fill="#18F397" transform="translate(127.375,30.4375)"/>
<path d="M0 0 C0 0.99 0 1.98 0 3 C-1.66666667 4.66666667 -3.33333333 6.33333333 -5 8 C-5 8.99 -5 9.98 -5 11 C-1.67465243 12.10844919 0.62182575 11.84454356 4 11 C-0.77841108 16.70499399 -5.80092267 22.11402231 -11 27.4375 C-12.17175781 28.67790039 -12.17175781 28.67790039 -13.3671875 29.94335938 C-14.13289063 30.72388672 -14.89859375 31.50441406 -15.6875 32.30859375 C-16.37199219 33.01814209 -17.05648437 33.72769043 -17.76171875 34.45874023 C-20.69412204 36.47796602 -22.51013532 36.43375512 -26 36 C-28.38671875 33.96484375 -28.38671875 33.96484375 -31 31 C-32.24703103 29.80384051 -33.50434466 28.61834584 -34.76953125 27.44140625 C-36.11745406 26.1487154 -37.46510517 24.85574117 -38.8125 23.5625 C-39.50537109 22.91990234 -40.19824219 22.27730469 -40.91210938 21.61523438 C-45.86053579 16.81306687 -45.86053579 16.81306687 -46.57421875 12.65234375 C-46 10 -46 10 -44 8 C-41.3359375 7.4375 -41.3359375 7.4375 -38 8 C-35.22434784 10.03618108 -32.95689247 12.47824573 -30.625 15 C-29.98433594 15.66773437 -29.34367187 16.33546875 -28.68359375 17.0234375 C-27.10799808 18.66958223 -25.54809281 20.32803435 -24 22 C-16.27214109 18.38463337 -10.62547528 10.88125432 -5.25 4.40625 C-3.68664484 2.64747544 -1.9664123 1.28573112 0 0 Z " fill="#0FC9DD" transform="translate(105,66)"/>
<path d="M0 0 C0 0.66 0 1.32 0 2 C1.94603274 2.59070014 1.94603274 2.59070014 4 3 C4.33 2.67 4.66 2.34 5 2 C7.33297433 1.95907063 9.66705225 1.95758277 12 2 C12.495 4.475 12.495 4.475 13 7 C12.01 7 11.02 7 10 7 C9.67 7.66 9.34 8.32 9 9 C7.36140015 9.02187378 7.36140015 9.02187378 5.68969727 9.04418945 C1.54991477 9.10314173 -2.58937725 9.18034586 -6.72875977 9.26245117 C-8.50406808 9.29525317 -10.27946953 9.32341631 -12.05493164 9.34643555 C-28.29760754 9.56251417 -43.28945275 11.78683224 -59 16 C-60.33267197 16.33596772 -61.66575694 16.67032689 -63 17 C-62.505 15.515 -62.505 15.515 -62 14 C-61.34 13.67 -60.68 13.34 -60 13 C-60 10.69 -60 8.38 -60 6 C-55.15758367 4.66416101 -51.06562383 3.74671881 -46 4 C-46 3.34 -46 2.68 -46 2 C-30.61569531 0.3040924 -15.47394334 -0.264895 0 0 Z " fill="#0CEFAD" transform="translate(100,27)"/>
<path d="M0 0 C3.5625 0.1875 3.5625 0.1875 5.5625 2.1875 C7.38543195 19.80917555 -1.99576698 38.32323812 -10.4375 53.1875 C-11.0975 52.8575 -11.7575 52.5275 -12.4375 52.1875 C-12.4375 51.5275 -12.4375 50.8675 -12.4375 50.1875 C-11.7775 50.1875 -11.1175 50.1875 -10.4375 50.1875 C-8.59433986 45.79267868 -8.59433986 45.79267868 -7.4375 41.1875 C-7.7675 40.5275 -8.0975 39.8675 -8.4375 39.1875 C-11.7360139 39.91018235 -11.7360139 39.91018235 -13.125 43.25 C-13.7746875 44.7040625 -13.7746875 44.7040625 -14.4375 46.1875 C-15.0975 46.1875 -15.7575 46.1875 -16.4375 46.1875 C-16.4375 46.8475 -16.4375 47.5075 -16.4375 48.1875 C-18.4175 48.6825 -18.4175 48.6825 -20.4375 49.1875 C-18.57181195 44.33299825 -16.3362621 39.66534516 -14.09179688 34.97851562 C-10.32593492 27.01384013 -7.89759683 19.42999023 -6.3125 10.75 C-5.979941 8.95900479 -5.64418129 7.16859989 -5.3046875 5.37890625 C-5.16144043 4.59717041 -5.01819336 3.81543457 -4.87060547 3.01000977 C-4.09500152 -0.25373514 -3.58210415 0.1953875 0 0 Z " fill="#0FE5BA" transform="translate(137.4375,60.8125)"/>
<path d="M0 0 C1.65 0 3.3 0 5 0 C4.49357808 4.35522853 3.61588503 7.44239635 1 11 C0.34 11 -0.32 11 -1 11 C-0.7525 11.53625 -0.505 12.0725 -0.25 12.625 C0.12500182 16.18751732 -1.93206589 18.27822183 -4 21 C-5.76738762 23.10583769 -7.61878542 25.12076321 -9.5 27.125 C-9.97308594 27.63675781 -10.44617188 28.14851563 -10.93359375 28.67578125 C-12.27952062 30.12610134 -13.63943488 31.5634033 -15 33 C-16.09828125 34.17175781 -16.09828125 34.17175781 -17.21875 35.3671875 C-19 37 -19 37 -21 37 C-21 37.66 -21 38.32 -21 39 C-21.66 39 -22.32 39 -23 39 C-23 37.68 -23 36.36 -23 35 C-22.34 35 -21.68 35 -21 35 C-21 34.01 -21 33.02 -21 32 C-20.01 32 -19.02 32 -18 32 C-18 31.34 -18 30.68 -18 30 C-19.32 29.34 -20.64 28.68 -22 28 C-22.556875 28.680625 -22.556875 28.680625 -23.125 29.375 C-25.54264685 31.47029394 -27.95430602 32.12013285 -31 33 C-30.360625 32.360625 -29.72125 31.72125 -29.0625 31.0625 C-28.60746094 30.60488281 -28.15242188 30.14726562 -27.68359375 29.67578125 C-26.43584234 28.43381987 -25.1761306 27.20384957 -23.91015625 25.98046875 C-19.33050632 21.51041728 -15.33262486 17.02927252 -11.703125 11.75 C-9.57044871 9.5586262 -7.98913352 9.32534787 -5 9 C-5 8.34 -5 7.68 -5 7 C-4.34 6.67 -3.68 6.34 -3 6 C-1.95191959 4.02477154 -0.9479589 2.02518491 0 0 Z " fill="#08CCE7" transform="translate(126,100)"/>
<path d="M0 0 C1.32 0.33 2.64 0.66 4 1 C3.690625 1.5775 3.38125 2.155 3.0625 2.75 C2.07416636 4.84294184 1.4831387 6.74535275 1 9 C2.32 9.33 3.64 9.66 5 10 C3.32729531 14.22794069 0.32824761 17.07507255 -2.8125 20.25 C-3.59463867 21.08144531 -3.59463867 21.08144531 -4.39257812 21.9296875 C-6.8560534 24.42699327 -8.33969813 25.91779733 -11.88671875 26.359375 C-12.58410156 26.24078125 -13.28148438 26.1221875 -14 26 C-14.33 26.66 -14.66 27.32 -15 28 C-17.475 27.01 -17.475 27.01 -20 26 C-19.52460544 21.721449 -16.97434671 19.90352893 -14 17 C-13.56816406 16.25234375 -13.13632813 15.5046875 -12.69140625 14.734375 C-10.5867748 11.33196849 -8.04671619 8.59106119 -5.3125 5.6875 C-4.80138672 5.13771484 -4.29027344 4.58792969 -3.76367188 4.02148438 C-2.51302966 2.6773362 -1.25705376 1.338154 0 0 Z " fill="#13E1AF" transform="translate(119,51)"/>
<path d="M0 0 C2.97 0 5.94 0 9 0 C10.44430855 2.88861709 10.37688506 4.79647701 10 8 C7.875 10.4375 7.875 10.4375 5 13 C3.41128941 14.85673266 1.86788367 16.74396453 0.33203125 18.64453125 C-0.32732422 19.31548828 -0.32732422 19.31548828 -1 20 C-1.66 20 -2.32 20 -3 20 C-3.66 21.32 -4.32 22.64 -5 24 C-6.98 23.67 -8.96 23.34 -11 23 C-11.33 22.01 -11.66 21.02 -12 20 C-11.2575 19.319375 -11.2575 19.319375 -10.5 18.625 C-8.77390663 17.12364481 -8.77390663 17.12364481 -9 15 C-9.66 14.34 -10.32 13.68 -11 13 C-9.75 11.4375 -9.75 11.4375 -8 10 C-5.8125 10.3125 -5.8125 10.3125 -4 11 C-2.42726432 8.1575146 -2.42726432 8.1575146 -2 5 C-1.34 5 -0.68 5 0 5 C0 3.35 0 1.7 0 0 Z " fill="#12F09B" transform="translate(131,37)"/>
<path d="M0 0 C4.51617599 -0.07654536 8.59085217 -0.10228696 13 1 C13 1.66 13 2.32 13 3 C13.66 3 14.32 3 15 3 C16.85072153 8.14089313 17.21474076 10.95531271 15 16 C14.34 16 13.68 16 13 16 C12.71125 16.78375 12.4225 17.5675 12.125 18.375 C11 21 11 21 9 23 C10.72226496 26.24849977 10.72226496 26.24849977 14 27 C14 28.65 14 30.3 14 32 C13.34 31.67 12.68 31.34 12 31 C9.6670134 30.95977609 7.33293334 30.95679753 5 31 C4.34 32.32 3.68 33.64 3 35 C2.67 34.67 2.34 34.34 2 34 C1.34 34.99 0.68 35.98 0 37 C-1.32 35.68 -2.64 34.36 -4 33 C-4.226875 33.598125 -4.45375 34.19625 -4.6875 34.8125 C-6.33811133 37.56351888 -8.1972081 38.52484637 -11 40 C-11 35.38998588 -8.11512887 33.19746707 -5 30 C-3.29821916 28.50025707 -1.55860293 27.0593044 0.1953125 25.62109375 C2.92354592 23.17040789 5.20048076 20.3728679 7.51953125 17.5390625 C8.00808594 17.03117187 8.49664062 16.52328125 9 16 C9.66 16 10.32 16 11 16 C13.09350689 12.5980513 13.17942163 9.94727588 13 6 C12.31292969 5.73445313 11.62585938 5.46890625 10.91796875 5.1953125 C10.01691406 4.84210937 9.11585938 4.48890625 8.1875 4.125 C7.29417969 3.77695312 6.40085938 3.42890625 5.48046875 3.0703125 C3 2 3 2 0 0 Z " fill="#056459" transform="translate(129,31)"/>
<path d="M0 0 C4.09286937 3.47004142 8.10409397 7.0019506 12.0625 10.625 C17.98020398 16.57787281 17.98020398 16.57787281 25.5625 19 C28.51930495 17.78695182 30.61714954 16.11052469 33 14 C33.66 14.33 34.32 14.66 35 15 C32.21486635 19.17770048 29.59438359 20.6690902 24.6875 21.6875 C23.800625 21.790625 22.91375 21.89375 22 22 C22 21.34 22 20.68 22 20 C18.15842899 18.19220188 15.22779506 17.812098 11 18 C10.34 18 9.68 18 9 18 C9.33 18.99 9.66 19.98 10 21 C12.31 21.33 14.62 21.66 17 22 C17 22.66 17 23.32 17 24 C15.02 24.99 15.02 24.99 13 26 C10.90734253 24.46981982 8.82651476 22.92682795 6.75 21.375 C6.16347656 20.94832031 5.57695313 20.52164063 4.97265625 20.08203125 C1.02832003 17.11269949 -1.4812895 14.25188258 -4 10 C-3.01 9.67 -2.02 9.34 -1 9 C-1 7.35 -1 5.7 -1 4 C-0.34 4 0.32 4 1 4 C0.67 2.68 0.34 1.36 0 0 Z " fill="#0CB5EE" transform="translate(60,119)"/>
<path d="M0 0 C1.32 0.66 2.64 1.32 4 2 C4 3.32 4 4.64 4 6 C3.38125 6.20625 2.7625 6.4125 2.125 6.625 C-0.26612104 7.84157106 -0.26612104 7.84157106 -0.75 10.625 C-2.58563883 15.58122484 -5.67664234 18.97443144 -10 22 C-14.27001525 22.14233384 -17.35224852 21.18865089 -21 19 C-21 16.6875 -21 16.6875 -20 14 C-16.90959651 12.26122353 -13.56623085 11 -10 11 C-10 10.34 -10 9.68 -10 9 C-8.3203125 7.30859375 -8.3203125 7.30859375 -6.125 5.4375 C-5.40570313 4.81746094 -4.68640625 4.19742188 -3.9453125 3.55859375 C-2 2 -2 2 0 1 C0 0.67 0 0.34 0 0 Z " fill="#07D7D4" transform="translate(97,78)"/>
<path d="M0 0 C0.33 0.33 0.66 0.66 1 1 C0.95125897 7.82374376 0.00840056 14.81046774 -3 21 C-3.66 21.33 -4.32 21.66 -5 22 C-5.66 21.67 -6.32 21.34 -7 21 C-7.33 22.32 -7.66 23.64 -8 25 C-10.29013653 21.5647952 -10.17842973 20.014669 -10 16 C-9.34 16 -8.68 16 -8 16 C-8.01160156 15.18015625 -8.02320313 14.3603125 -8.03515625 13.515625 C-8.04417969 12.43796875 -8.05320313 11.3603125 -8.0625 10.25 C-8.07410156 9.18265625 -8.08570313 8.1153125 -8.09765625 7.015625 C-8.01454043 4.44900837 -7.89084647 2.39800183 -7 0 C-4.31633121 -1.3418344 -2.84719317 -0.73004953 0 0 Z " fill="#0EF0AD" transform="translate(141,63)"/>
<path d="M0 0 C2.7558573 4.13378595 3.10756445 6.05203546 3 11 C2.34 11 1.68 11 1 11 C1 11.99 1 12.98 1 14 C2.98 13.67 4.96 13.34 7 13 C7.18175781 13.63808594 7.36351562 14.27617188 7.55078125 14.93359375 C7.92783203 16.17302734 7.92783203 16.17302734 8.3125 17.4375 C8.67794922 18.67306641 8.67794922 18.67306641 9.05078125 19.93359375 C9.36402344 20.61550781 9.67726563 21.29742187 10 22 C10.99 22.33 11.98 22.66 13 23 C14.3125 25.375 14.3125 25.375 15 28 C14.34 28.99 13.68 29.98 13 31 C12.01 30.34 11.02 29.68 10 29 C10 28.01 10 27.02 10 26 C9.01 26.99 8.02 27.98 7 29 C5.5393715 26.35261084 5 25.10551666 5 22 C5.66 22 6.32 22 7 22 C7 21.34 7 20.68 7 20 C5.35 20 3.7 20 2 20 C1.67 19.34 1.34 18.68 1 18 C0.34 18 -0.32 18 -1 18 C-1 16.35 -1 14.7 -1 13 C-1.66 13 -2.32 13 -3 13 C-3.59222907 9.98735648 -4.05823431 7.07583023 -4 4 C-2.0625 1.4375 -2.0625 1.4375 0 0 Z " fill="#06BEFA" transform="translate(41,90)"/>
<path d="M0 0 C0 0.99 0 1.98 0 3 C-1.66666667 4.66666667 -3.33333333 6.33333333 -5 8 C-5 8.99 -5 9.98 -5 11 C-1.67465243 12.10844919 0.62182575 11.84454356 4 11 C0.0580583 15.88049925 -4.11950075 20.0580583 -9 24 C-8.67 22.35 -8.34 20.7 -8 19 C-6.68 18.67 -5.36 18.34 -4 18 C-4.66 16.35 -5.32 14.7 -6 13 C-9.00882845 14.91470901 -11.72240423 16.72240423 -14.25 19.25 C-15.11625 20.11625 -15.11625 20.11625 -16 21 C-16.66 21 -17.32 21 -18 21 C-18 21.66 -18 22.32 -18 23 C-20.375 24.0625 -20.375 24.0625 -23 25 C-23.66 24.67 -24.32 24.34 -25 24 C-24 22 -24 22 -22.2421875 21.16796875 C-15.44349051 17.62648722 -10.10258042 10.25140369 -5.25 4.40625 C-3.68664484 2.64747544 -1.9664123 1.28573112 0 0 Z " fill="#13D4C4" transform="translate(105,66)"/>
<path d="M0 0 C1.82712524 0.00410889 1.82712524 0.00410889 3.69116211 0.00830078 C31.20107136 0.32154757 31.20107136 0.32154757 38.6875 5.3125 C33.53578377 5.40288099 28.76836796 5.15931133 23.6875 4.3125 C23.3575 4.9725 23.0275 5.6325 22.6875 6.3125 C21.3675 5.6525 20.0475 4.9925 18.6875 4.3125 C18.6875 3.6525 18.6875 2.9925 18.6875 2.3125 C17.64932129 2.37308594 16.61114258 2.43367188 15.54150391 2.49609375 C11.64648559 2.72262847 7.75125664 2.94535137 3.85595703 3.16699219 C2.17816394 3.26297651 0.50042766 3.35995981 -1.17724609 3.45800781 C-9.89766858 3.9670021 -18.57292215 4.45489638 -27.3125 4.3125 C-18.89990942 -0.2303704 -9.3342563 -0.04247817 0 0 Z " fill="#1BC69A" transform="translate(81.3125,24.6875)"/>
<path d="M0 0 C1.65 0 3.3 0 5 0 C4.49357808 4.35522853 3.61588503 7.44239635 1 11 C0.34 11 -0.32 11 -1 11 C-0.67 12.32 -0.34 13.64 0 15 C-3 16 -3 16 -6 15 C-6.33 15.99 -6.66 16.98 -7 18 C-7.99 18.33 -8.98 18.66 -10 19 C-11.03023161 15.72199032 -11.17153978 14.38596452 -9.75 11.1875 C-9.1725 10.465625 -8.595 9.74375 -8 9 C-7.01 9 -6.02 9 -5 9 C-5 8.34 -5 7.68 -5 7 C-4.34 6.67 -3.68 6.34 -3 6 C-1.95191959 4.02477154 -0.9479589 2.02518491 0 0 Z " fill="#09D7D3" transform="translate(126,100)"/>
<path d="M0 0 C0 1.65 0 3.3 0 5 C-0.99 5 -1.98 5 -3 5 C-3.28875 6.134375 -3.5775 7.26875 -3.875 8.4375 C-4.24625 9.613125 -4.6175 10.78875 -5 12 C-5.99 12.495 -5.99 12.495 -7 13 C-7 11.68 -7 10.36 -7 9 C-7.99 9 -8.98 9 -10 9 C-10.28875 10.11375 -10.5775 11.2275 -10.875 12.375 C-12 16 -12 16 -14 18 C-14.41860465 4.93023256 -14.41860465 4.93023256 -12 1 C-7.87820459 -0.94287272 -4.35384478 -1.33739178 0 0 Z " fill="#08DBCF" transform="translate(41,36)"/>
<path d="M0 0 C3.5625 0.1875 3.5625 0.1875 5.5625 2.1875 C6.19329323 9.88317746 4.49042412 16.76269698 2.5625 24.1875 C2.2325 24.1875 1.9025 24.1875 1.5625 24.1875 C1.65337891 23.29611328 1.65337891 23.29611328 1.74609375 22.38671875 C2.39267878 15.99050071 2.99034346 9.59078386 3.5625 3.1875 C0.09102158 2.43792843 0.09102158 2.43792843 -3.4375 2.1875 C-3.7675 7.4675 -4.0975 12.7475 -4.4375 18.1875 C-5.0975 18.1875 -5.7575 18.1875 -6.4375 18.1875 C-6.56125 19.38375 -6.685 20.58 -6.8125 21.8125 C-7.26512681 25.47231107 -8.17426132 28.71359364 -9.4375 32.1875 C-9.6025 32.950625 -9.7675 33.71375 -9.9375 34.5 C-10.1025 35.056875 -10.2675 35.61375 -10.4375 36.1875 C-11.4275 36.6825 -11.4275 36.6825 -12.4375 37.1875 C-13.15909424 38.83113134 -13.83101421 40.49800386 -14.4375 42.1875 C-15.0975 42.1875 -15.7575 42.1875 -16.4375 42.1875 C-15.05972826 37.84423862 -13.3813735 33.73742725 -11.5625 29.5625 C-7.95389465 20.97121369 -6.36441472 12.05139986 -4.82299805 2.89892578 C-4.10608105 -0.28384062 -3.47012999 0.18927982 0 0 Z " fill="#21D4A3" transform="translate(137.4375,60.8125)"/>
<path d="M0 0 C0 0.66 0 1.32 0 2 C-4.62 2.66 -9.24 3.32 -14 4 C-14 4.66 -14 5.32 -14 6 C-17.82989106 7.80230168 -20.78121808 8.19622241 -25 8 C-25.87782924 12.51368252 -26.1166438 16.77219979 -26.09765625 21.3671875 C-26.0962413 22.04677521 -26.09482635 22.72636292 -26.09336853 23.42654419 C-26.08781518 25.57607612 -26.07527169 27.72550008 -26.0625 29.875 C-26.05747896 31.34114432 -26.05291711 32.80729029 -26.04882812 34.2734375 C-26.03786111 37.84899283 -26.02062919 41.42448586 -26 45 C-26.33 45 -26.66 45 -27 45 C-28.0918218 37.90752556 -28.18350004 30.91792016 -28.1875 23.75 C-28.19974609 22.57953125 -28.21199219 21.4090625 -28.22460938 20.203125 C-28.22654297 19.0790625 -28.22847656 17.955 -28.23046875 16.796875 C-28.23457764 15.77948242 -28.23868652 14.76208984 -28.24291992 13.71386719 C-27.99460622 10.93974142 -27.50552076 9.32345735 -26 7 C-18.68331007 2.67120138 -8.44376567 0 0 0 Z " fill="#1CADBB" transform="translate(54,29)"/>
<path d="M0 0 C1.32 0.99 2.64 1.98 4 3 C4.99 2.01 5.98 1.02 7 0 C6.40440894 4.86872054 4.27522585 8.59328841 1.9375 12.8125 C1.37192383 13.85180664 1.37192383 13.85180664 0.79492188 14.91210938 C-0.13083852 16.61128985 -1.06462312 18.30609425 -2 20 C-2.66 19.67 -3.32 19.34 -4 19 C-4 18.34 -4 17.68 -4 17 C-3.34 17 -2.68 17 -2 17 C-0.15683986 12.60517868 -0.15683986 12.60517868 1 8 C0.67 7.34 0.34 6.68 0 6 C-3.2985139 6.72268235 -3.2985139 6.72268235 -4.6875 10.0625 C-5.120625 11.031875 -5.55375 12.00125 -6 13 C-6.66 13 -7.32 13 -8 13 C-8 13.66 -8 14.32 -8 15 C-9.32 15.33 -10.64 15.66 -12 16 C-10.125 11.25 -10.125 11.25 -9 9 C-8.01 9 -7.02 9 -6 9 C-5.7525 8.071875 -5.505 7.14375 -5.25 6.1875 C-3.93545755 2.83541675 -3.02036616 1.8122197 0 0 Z " fill="#14D6C1" transform="translate(129,94)"/>
<path d="M0 0 C4.71910453 -0.32545548 7.18800694 -0.39149665 11.5 1.6875 C14 4 14 4 14.375 6.75 C14.25125 7.4925 14.1275 8.235 14 9 C12.00045254 9.04254356 9.99958364 9.04080783 8 9 C7.67 8.67 7.34 8.34 7 8 C5.48834346 7.60851239 3.96530368 7.26027543 2.4375 6.9375 C1.61121094 6.76089844 0.78492187 6.58429687 -0.06640625 6.40234375 C-0.70449219 6.26957031 -1.34257813 6.13679688 -2 6 C-2 5.34 -2 4.68 -2 4 C-1.34 3.67 -0.68 3.34 0 3 C0 2.01 0 1.02 0 0 Z " fill="#0FFD96" transform="translate(112,30)"/>
<path d="M0 0 C2.0625 0.4375 2.0625 0.4375 4 1 C3 3 2 5 1 7 C0.960008 8.99960012 0.95653201 11.00047242 1 13 C0.01 12.67 -0.98 12.34 -2 12 C-2 11.01 -2 10.02 -2 9 C-3.65 10.65 -5.3 12.3 -7 14 C-6.01 14.33 -5.02 14.66 -4 15 C-5.98 15.99 -5.98 15.99 -8 17 C-8 16.34 -8 15.68 -8 15 C-8.66 15 -9.32 15 -10 15 C-8.55693119 8.58636086 -4.52173041 4.52173041 0 0 Z " fill="#10F4A6" transform="translate(119,51)"/>
<path d="M0 0 C4.6875 3.61328125 4.6875 3.61328125 6 5 C6 5.99 6 6.98 6 8 C6.66 8.33 7.32 8.66 8 9 C7.38125 9.061875 6.7625 9.12375 6.125 9.1875 C3.72238859 9.828919 3.72238859 9.828919 2.75 12.5625 C2.5025 13.366875 2.255 14.17125 2 15 C2.53625 15.12375 3.0725 15.2475 3.625 15.375 C6.4638286 16.12206016 9.22223202 17.05303364 12 18 C11.67 18.66 11.34 19.32 11 20 C8.3125 20.3125 8.3125 20.3125 5 20 C1.49520695 17.07933912 -1.21887603 13.6051607 -4 10 C-2.68 10 -1.36 10 0 10 C0 9.34 0 8.68 0 8 C0.99 8 1.98 8 3 8 C2.505 7.608125 2.01 7.21625 1.5 6.8125 C-0.45593143 4.44908285 -0.24207973 2.98564997 0 0 Z " fill="#11C8D9" transform="translate(74,82)"/>
<path d="M0 0 C0.98608749 0.00212242 0.98608749 0.00212242 1.99209595 0.00428772 C4.07029981 0.00983863 6.14839177 0.0223816 8.2265625 0.03515625 C9.64452968 0.04017761 11.06249857 0.0447394 12.48046875 0.04882812 C15.93753572 0.05979188 19.39453817 0.07702204 22.8515625 0.09765625 C22.8515625 0.42765625 22.8515625 0.75765625 22.8515625 1.09765625 C21.98543335 1.11953003 21.98543335 1.11953003 21.10180664 1.1418457 C4.06567411 1.61933659 -11.66577224 3.67742615 -28.1484375 8.09765625 C-29.48110947 8.43362397 -30.81419444 8.76798314 -32.1484375 9.09765625 C-31.8184375 8.10765625 -31.4884375 7.11765625 -31.1484375 6.09765625 C-28.3828125 5.21875 -28.3828125 5.21875 -24.8984375 4.53515625 C-20.163647 3.59573768 -20.163647 3.59573768 -15.6015625 2.0703125 C-10.52041867 0.05565515 -5.41046508 -0.02312165 0 0 Z " fill="#1DCDB0" transform="translate(69.1484375,34.90234375)"/>
<path d="M0 0 C2 1.375 2 1.375 4 3 C4 3.66 4 4.32 4 5 C3.01 5.495 3.01 5.495 2 6 C1.67 6.99 1.34 7.98 1 9 C0.34 8.67 -0.32 8.34 -1 8 C-1 9.65 -1 11.3 -1 13 C-1.99 13.495 -1.99 13.495 -3 14 C-3 12.68 -3 11.36 -3 10 C-4.98 10.33 -6.96 10.66 -9 11 C-9 10.34 -9 9.68 -9 9 C-9.66 8.67 -10.32 8.34 -11 8 C-7.71195019 5.08772731 -5.40114397 3.50298788 -1 3 C-0.67 2.01 -0.34 1.02 0 0 Z " fill="#08C2F1" transform="translate(104,127)"/>
<path d="M0 0 C2.97 0 5.94 0 9 0 C9.33 2.31 9.66 4.62 10 7 C9.071875 7.12375 9.071875 7.12375 8.125 7.25 C5.81562433 7.81258459 5.81562433 7.81258459 4.75 10.0625 C4.5025 10.701875 4.255 11.34125 4 12 C3.67 12 3.34 12 3 12 C3 10.02 3 8.04 3 6 C1.35 6.33 -0.3 6.66 -2 7 C-2 6.34 -2 5.68 -2 5 C-1.34 5 -0.68 5 0 5 C0 3.35 0 1.7 0 0 Z " fill="#0EFD97" transform="translate(131,37)"/>
<path d="M0 0 C4.51617599 -0.07654536 8.59085217 -0.10228696 13 1 C13 1.66 13 2.32 13 3 C13.66 3 14.32 3 15 3 C16.85072153 8.14089313 17.21474076 10.95531271 15 16 C14.34 16 13.68 16 13 16 C12.01 18.475 12.01 18.475 11 21 C10.34 20.67 9.68 20.34 9 20 C6.90178785 20.39938767 6.90178785 20.39938767 5 21 C6.28062485 19.2925002 7.61767557 17.62626404 9 16 C9.66 16 10.32 16 11 16 C13.09350689 12.5980513 13.17942163 9.94727588 13 6 C11.96939453 5.60167969 11.96939453 5.60167969 10.91796875 5.1953125 C10.01691406 4.84210937 9.11585938 4.48890625 8.1875 4.125 C7.29417969 3.77695312 6.40085938 3.42890625 5.48046875 3.0703125 C3 2 3 2 0 0 Z " fill="#04765C" transform="translate(129,31)"/>
<path d="M0 0 C-1.66666667 1.66666667 -3.33333333 3.33333333 -5 5 C-5.928125 6.11375 -5.928125 6.11375 -6.875 7.25 C-9.77418306 9.63756252 -12.32289786 9.71714599 -16 10 C-15.67 9.34 -15.34 8.68 -15 8 C-15.99 7.67 -16.98 7.34 -18 7 C-18 6.34 -18 5.68 -18 5 C-16.02 5 -14.04 5 -12 5 C-12 4.34 -12 3.68 -12 3 C-7.84850771 0.11701924 -4.90549313 -1.63516438 0 0 Z " fill="#053652" transform="translate(100,146)"/>
<path d="M0 0 C0.99 0.33 1.98 0.66 3 1 C3 3.97 3 6.94 3 10 C1.68 10 0.36 10 -1 10 C-1.33 10.66 -1.66 11.32 -2 12 C-4.475 11.01 -4.475 11.01 -7 10 C-6.42424336 6.64749299 -5.40693737 5.06181371 -2.9375 2.75 C-2.38964844 2.22921875 -1.84179688 1.7084375 -1.27734375 1.171875 C-0.64505859 0.59179688 -0.64505859 0.59179688 0 0 Z " fill="#08E5BF" transform="translate(106,67)"/>
<path d="M0 0 C1.875 0.6875 1.875 0.6875 4 2 C5.0625 4.3125 5.0625 4.3125 6 7 C6.515625 7.825 7.03125 8.65 7.5625 9.5 C9.03262759 12.05674363 9.58575164 14.10026145 10 17 C8.68 16.67 7.36 16.34 6 16 C6 15.67 6 15.34 6 15 C4.68 14.67 3.36 14.34 2 14 C0.9673198 11.21176345 0.95490707 10.1322726 1.9375 7.25 C2.288125 6.5075 2.63875 5.765 3 5 C2.01 4.67 1.02 4.34 0 4 C0 2.68 0 1.36 0 0 Z " fill="#02223F" transform="translate(32,97)"/>
<path d="M0 0 C0.33 0.99 0.66 1.98 1 3 C2.65 3 4.3 3 6 3 C6 3.66 6 4.32 6 5 C5.34 5 4.68 5 4 5 C4.99 6.98 5.98 8.96 7 11 C7.99 10.01 8.98 9.02 10 8 C10.03738281 8.61488281 10.07476562 9.22976562 10.11328125 9.86328125 C10.21189453 11.07564453 10.21189453 11.07564453 10.3125 12.3125 C10.39951172 13.51326172 10.39951172 13.51326172 10.48828125 14.73828125 C11.08206694 17.36272334 11.95780294 18.30820672 14 20 C13.67 20.66 13.34 21.32 13 22 C7.11136415 15.80546098 2.38516018 9.33143968 -2 2 C-1.34 1.34 -0.68 0.68 0 0 Z " fill="#14ACE0" transform="translate(42,107)"/>
<path d="M0 0 C0 0.66 0 1.32 0 2 C1.32 2 2.64 2 4 2 C4.33 1.34 4.66 0.68 5 0 C5 0.99 5 1.98 5 3 C5.99 2.34 6.98 1.68 8 1 C8.66 0.67 9.32 0.34 10 0 C10.33 1.98 10.66 3.96 11 6 C2.55467195 5.24595285 -5.68741223 3.62171958 -14 2 C-14 1.67 -14 1.34 -14 1 C-9.27616037 0.34843591 -4.78025483 -0.11950637 0 0 Z " fill="#04735F" transform="translate(118,25)"/>
<path d="M0 0 C4.89685082 0.8315407 7.15867127 3.90480514 10.3125 7.5625 C7.3125 8.5625 7.3125 8.5625 4.625 7.3125 C3.861875 6.735 3.09875 6.1575 2.3125 5.5625 C2.3125 4.5725 2.3125 3.5825 2.3125 2.5625 C1.3225 2.8925 0.3325 3.2225 -0.6875 3.5625 C-1.0175 5.8725 -1.3475 8.1825 -1.6875 10.5625 C-2.6775 9.9025 -3.6675 9.2425 -4.6875 8.5625 C-5 5.5625 -5 5.5625 -4.6875 2.5625 C-2.6875 0.5625 -2.6875 0.5625 0 0 Z " fill="#18C7D3" transform="translate(63.6875,73.4375)"/>
<path d="M0 0 C1.65 0 3.3 0 5 0 C5 1.65 5 3.3 5 5 C5.99 5.33 6.98 5.66 8 6 C8 6.66 8 7.32 8 8 C7.01 8 6.02 8 5 8 C5 8.66 5 9.32 5 10 C3.68 10 2.36 10 1 10 C-0.1577506 6.52674819 -0.06866652 3.63932552 0 0 Z " fill="#07D0E1" transform="translate(69,82)"/>
<path d="M0 0 C1.28270075 2.56540151 0.68405835 3.26376662 0 6 C-0.03845443 7.99963028 -0.04544281 10.00051633 0 12 C-0.66 12 -1.32 12 -2 12 C-2.33 11.34 -2.66 10.68 -3 10 C-3.86625 11.0209375 -3.86625 11.0209375 -4.75 12.0625 C-5.86375 13.0215625 -5.86375 13.0215625 -7 14 C-9.140625 13.62109375 -9.140625 13.62109375 -11 13 C-10.06027344 11.96939453 -10.06027344 11.96939453 -9.1015625 10.91796875 C-8.28429687 10.01691406 -7.46703125 9.11585937 -6.625 8.1875 C-5.81289062 7.29417969 -5.00078125 6.40085937 -4.1640625 5.48046875 C-1.90927093 3.00367326 -1.90927093 3.00367326 0 0 Z " fill="#14C4D3" transform="translate(116,110)"/>
<path d="M0 0 C4.875 0.875 4.875 0.875 6 2 C5.82364548 4.69082872 5.38164079 7.32851446 5 10 C4.01 10 3.02 10 2 10 C0.25 7.8125 0.25 7.8125 -1 5 C-0.6875 2.1875 -0.6875 2.1875 0 0 Z " fill="#0AF8A0" transform="translate(136,62)"/>
<path d="M0 0 C1.03125 0.309375 2.0625 0.61875 3.125 0.9375 C2.795 2.9175 2.465 4.8975 2.125 6.9375 C0.475 5.6175 -1.175 4.2975 -2.875 2.9375 C-3.101875 3.535625 -3.32875 4.13375 -3.5625 4.75 C-5.21311133 7.50101888 -7.0722081 8.46234637 -9.875 9.9375 C-9.875 5.86190748 -8.29598627 4.30712518 -5.67578125 1.32421875 C-3.875 -0.0625 -3.875 -0.0625 0 0 Z " fill="#035351" transform="translate(127.875,61.0625)"/>
<path d="M0 0 C0.33 1.32 0.66 2.64 1 4 C0.01 4.495 0.01 4.495 -1 5 C-1.12375 5.804375 -1.2475 6.60875 -1.375 7.4375 C-2 10 -2 10 -3.6875 11.25 C-6.4362755 12.14149476 -9.13978281 12.60997038 -12 13 C-8.19524578 8.43969176 -4.25030379 4.14910608 0 0 Z " fill="#034356" transform="translate(105,81)"/>
<path d="M0 0 C0.99 0.33 1.98 0.66 3 1 C3 1.66 3 2.32 3 3 C4.65 3.33 6.3 3.66 8 4 C8 5.65 8 7.3 8 9 C4.28111761 8.49287967 1.26545761 7.88391785 -2 6 C-1.125 1.125 -1.125 1.125 0 0 Z " fill="#07CEE7" transform="translate(78,91)"/>
<path d="M0 0 C5.73138244 -0.15490223 10.89349206 0.34755115 16.5 1.5 C17.22703125 1.64308594 17.9540625 1.78617188 18.703125 1.93359375 C20.47009071 2.28233698 22.23525309 2.64019723 24 3 C24 3.33 24 3.66 24 4 C18.84828377 4.09038099 14.08086796 3.84681133 9 3 C8.67 3.66 8.34 4.32 8 5 C6.68 4.34 5.36 3.68 4 3 C4 2.34 4 1.68 4 1 C2.68 0.67 1.36 0.34 0 0 Z " fill="#1CE89A" transform="translate(96,26)"/>
<path d="M0 0 C3.3 0 6.6 0 10 0 C9.67 0.99 9.34 1.98 9 3 C7.42074025 3.39180108 5.83631206 3.76280736 4.25 4.125 C3.36828125 4.33382812 2.4865625 4.54265625 1.578125 4.7578125 C-1.32875493 5.03088304 -2.56661348 4.53508028 -5 3 C-3.35 2.67 -1.7 2.34 0 2 C0 1.34 0 0.68 0 0 Z " fill="#042D40" transform="translate(48,40)"/>
<path d="M0 0 C0 0.66 0 1.32 0 2 C-4.62 2.66 -9.24 3.32 -14 4 C-14 4.66 -14 5.32 -14 6 C-16.90600261 7.25664978 -18.79604584 8 -22 8 C-22 7.01 -22 6.02 -22 5 C-19.75023648 4.35334337 -17.50018033 3.70770477 -15.25 3.0625 C-13.99703125 2.70285156 -12.7440625 2.34320312 -11.453125 1.97265625 C-10.31359375 1.65167969 -9.1740625 1.33070312 -8 1 C-7.27296875 0.79246094 -6.5459375 0.58492187 -5.796875 0.37109375 C-4 0 -4 0 0 0 Z " fill="#1BCDBB" transform="translate(54,29)"/>
<path d="M0 0 C3.50695293 0.5653911 5.02732613 1.68722726 7.3125 4.375 C7.84488281 4.98085937 8.37726562 5.58671875 8.92578125 6.2109375 C9.28027344 6.80132812 9.63476562 7.39171875 10 8 C9.67 8.99 9.34 9.98 9 11 C8.01 11 7.02 11 6 11 C5.67 9.68 5.34 8.36 5 7 C4.01 7.495 4.01 7.495 3 8 C0 2.25 0 2.25 0 0 Z " fill="#032B4D" transform="translate(47,122)"/>
<path d="M0 0 C1.65 0.33 3.3 0.66 5 1 C2.53974941 5.51045941 -0.60282037 9.18504423 -4 13 C-4.33 11.68 -4.66 10.36 -5 9 C-4.01 9 -3.02 9 -2 9 C-2.04125 8.2575 -2.0825 7.515 -2.125 6.75 C-1.99601866 3.91241048 -1.42948778 2.41226062 0 0 Z " fill="#12C4D5" transform="translate(120,115)"/>
<path d="M0 0 C0.66 0.99 1.32 1.98 2 3 C3.32 3 4.64 3 6 3 C6 3.99 6 4.98 6 6 C5.01 6 4.02 6 3 6 C2.71125 7.11375 2.4225 8.2275 2.125 9.375 C1 13 1 13 -1 15 C-1.02715383 13.25008666 -1.04646551 11.50005055 -1.0625 9.75 C-1.07410156 8.77546875 -1.08570312 7.8009375 -1.09765625 6.796875 C-1.01195577 4.34241322 -0.70706066 2.33831086 0 0 Z " fill="#0CD4D5" transform="translate(28,39)"/>
<path d="M0 0 C5.77227287 -0.36844295 10.7230161 0.53136805 16 3 C16.33 3.66 16.66 4.32 17 5 C11.72 4.34 6.44 3.68 1 3 C0.67 2.01 0.34 1.02 0 0 Z " fill="#1BD18F" transform="translate(102,35)"/>
<path d="M0 0 C6.6 0 13.2 0 20 0 C20 0.33 20 0.66 20 1 C16.7 1 13.4 1 10 1 C10 1.66 10 2.32 10 3 C6.7 3 3.4 3 0 3 C0 2.01 0 1.02 0 0 Z " fill="#0CF79F" transform="translate(80,27)"/>
<path d="M0 0 C2 2 2 2 2.1953125 3.9453125 C2.13020833 5.96354167 2.06510417 7.98177083 2 10 C0.125 11.0625 0.125 11.0625 -2 12 C-2.66 11.67 -3.32 11.34 -4 11 C-3.21681311 7.08406554 -1.60820142 3.63593365 0 0 Z " fill="#052640" transform="translate(24,36)"/>
<path d="M0 0 C0.99 0 1.98 0 3 0 C3.6875 1.6875 3.6875 1.6875 4 4 C2.5625 6.75 2.5625 6.75 1 9 C0.01 8.67 -0.98 8.34 -2 8 C-2 8.66 -2 9.32 -2 10 C-2.66 10 -3.32 10 -4 10 C-2.8905928 6.51329166 -1.73662334 3.22515763 0 0 Z " fill="#02505A" transform="translate(134,99)"/>
<path d="M0 0 C0.33 0.66 0.66 1.32 1 2 C1.66 2 2.32 2 3 2 C3.12117188 2.81984375 3.24234375 3.6396875 3.3671875 4.484375 C3.53476562 5.56203125 3.70234375 6.6396875 3.875 7.75 C4.11863281 9.35101563 4.11863281 9.35101563 4.3671875 10.984375 C4.9360147 13.6950824 5.74326322 15.57319795 7 18 C6.625 20.25 6.625 20.25 6 22 C2.14301991 15.38803413 0 7.64439194 0 0 Z " fill="#1EA3CD" transform="translate(28,74)"/>
<path d="M0 0 C4.88049925 3.9419417 9.0580583 8.11950075 13 13 C11.35 12.67 9.7 12.34 8 12 C8 11.01 8 10.02 8 9 C7.1028125 8.8453125 7.1028125 8.8453125 6.1875 8.6875 C3.60796663 7.87678951 2.61808625 7.15744833 1 5 C0.3125 2.3125 0.3125 2.3125 0 0 Z " fill="#1AACE0" transform="translate(60,119)"/>
<path d="M0 0 C0 3 0 3 -2 6 C-1.34 6.33 -0.68 6.66 0 7 C-2.26185454 9.26185454 -3.96983561 10.03921617 -7 11 C-7.99 10.67 -8.98 10.34 -10 10 C-6.7 6.7 -3.4 3.4 0 0 Z " fill="#024E55" transform="translate(116,70)"/>
<path d="M0 0 C1.03719328 3.21456356 0.94068337 5.40925583 0.1875 8.6875 C-0.06966797 9.86892578 -0.06966797 9.86892578 -0.33203125 11.07421875 C-1 13 -1 13 -3 14 C-3.72159424 15.64363134 -4.39351421 17.31050386 -5 19 C-5.66 19 -6.32 19 -7 19 C-5.58632741 14.65328707 -4.02739359 10.3864361 -2.375 6.125 C-1.92898437 4.97257812 -1.48296875 3.82015625 -1.0234375 2.6328125 C-0.68570313 1.76398438 -0.34796875 0.89515625 0 0 Z " fill="#1CBBAA" transform="translate(128,84)"/>
<path d="M0 0 C4.12751449 0.60698743 7.3321148 2.03810791 11 4 C11 5.98 11 7.96 11 10 C10.01 10.495 10.01 10.495 9 11 C8.814375 9.88625 8.62875 8.7725 8.4375 7.625 C7.963125 6.42875 7.48875 5.2325 7 4 C3.48599332 2.45913678 3.48599332 2.45913678 0 2 C0 1.34 0 0.68 0 0 Z " fill="#23E29A" transform="translate(132,33)"/>
<path d="M0 0 C1.9451 2.91765 2.45276317 4.62537285 3 8 C1.68 8.33 0.36 8.66 -1 9 C-2.125 6.6875 -2.125 6.6875 -3 4 C-1 1 -1 1 0 0 Z " fill="#03233E" transform="translate(30,87)"/>
<path d="M0 0 C0.33 0.66 0.66 1.32 1 2 C-1.1221675 7.04014781 -4.24069715 8.75014774 -9 11 C-9.66 10.67 -10.32 10.34 -11 10 C-10.01 9.67 -9.02 9.34 -8 9 C-8 8.34 -8 7.68 -8 7 C-6.25 5.2734375 -6.25 5.2734375 -4 3.375 C-3.2575 2.74335938 -2.515 2.11171875 -1.75 1.4609375 C-1.1725 0.97882813 -0.595 0.49671875 0 0 Z " fill="#024B68" transform="translate(113,130)"/>
<path d="M0 0 C2.97 0.33 5.94 0.66 9 1 C9.6875 3.3125 9.6875 3.3125 10 6 C8.5625 7.8125 8.5625 7.8125 7 9 C6.01 8.01 5.02 7.02 4 6 C4.99 4.68 5.98 3.36 7 2 C4.69 1.67 2.38 1.34 0 1 C0 0.67 0 0.34 0 0 Z " fill="#1AD48A" transform="translate(120,40)"/>
<path d="M0 0 C4 1.33333333 8 2.66666667 12 4 C11.67 4.66 11.34 5.32 11 6 C8.3125 6.3125 8.3125 6.3125 5 6 C2.125 3.5625 2.125 3.5625 0 1 C0 0.67 0 0.34 0 0 Z " fill="#1CB6CA" transform="translate(74,96)"/>
<path d="M0 0 C0.99 0.33 1.98 0.66 3 1 C0.03 4.3 -2.94 7.6 -6 11 C-6.33 9.68 -6.66 8.36 -7 7 C-5.25 4.75 -5.25 4.75 -3 3 C-2.01 3 -1.02 3 0 3 C0 2.01 0 1.02 0 0 Z " fill="#045F5B" transform="translate(111,56)"/>
<path d="M0 0 C0.721875 0.309375 1.44375 0.61875 2.1875 0.9375 C4.81154151 1.92880457 7.25025098 2.49346729 10 3 C10.99 3.33 11.98 3.66 13 4 C13 4.66 13 5.32 13 6 C11.02 6.99 11.02 6.99 9 8 C7.49712782 6.85793642 5.99776716 5.71125043 4.5 4.5625 C3.6646875 3.92441406 2.829375 3.28632813 1.96875 2.62890625 C1.3190625 2.09136719 0.669375 1.55382812 0 1 C0 0.67 0 0.34 0 0 Z " fill="#13A6D6" transform="translate(64,137)"/>
<path d="M0 0 C-1.62339805 1.70884005 -3.29319053 3.37446717 -5 5 C-5.66 5 -6.32 5 -7 5 C-7 5.66 -7 6.32 -7 7 C-7.66 7 -8.32 7 -9 7 C-9 5.68 -9 4.36 -9 3 C-8.34 3 -7.68 3 -7 3 C-7 2.01 -7 1.02 -7 0 C-3.86650268 -1.04449911 -3.01031744 -0.93423645 0 0 Z " fill="#17B8E0" transform="translate(112,132)"/>
<path d="M0 0 C0.66 0 1.32 0 2 0 C2 0.99 2 1.98 2 3 C3.32 3.66 4.64 4.32 6 5 C6 6.32 6 7.64 6 9 C4 8 4 8 1 6 C1 5.34 1 4.68 1 4 C0.01 3.67 -0.98 3.34 -2 3 C-1.34 2.67 -0.68 2.34 0 2 C0 1.34 0 0.68 0 0 Z " fill="#032843" transform="translate(56,79)"/>
<path d="M0 0 C2 3 2 3 1.625 6.1875 C1.41875 7.115625 1.2125 8.04375 1 9 C0.01 9 -0.98 9 -2 9 C-2.125 5.625 -2.125 5.625 -2 2 C-1.34 1.34 -0.68 0.68 0 0 Z " fill="#032039" transform="translate(26,71)"/>
<path d="M0 0 C1.41681634 0.31182069 2.83344651 0.62448737 4.25 0.9375 C5.43335937 1.19853516 5.43335937 1.19853516 6.640625 1.46484375 C8.76878703 1.947556 10.88532842 2.46163178 13 3 C11.25 6.875 11.25 6.875 9 8 C9 7.01 9 6.02 9 5 C6.03 4.01 3.06 3.02 0 2 C0 1.34 0 0.68 0 0 Z " fill="#005B44" transform="translate(114,39)"/>
<path d="M0 0 C0.66 0 1.32 0 2 0 C2 1.32 2 2.64 2 4 C-0.31 4.66 -2.62 5.32 -5 6 C-4.67 5.34 -4.34 4.68 -4 4 C-4.99 3.67 -5.98 3.34 -7 3 C-7 2.34 -7 1.68 -7 1 C-5.5459375 1.0309375 -5.5459375 1.0309375 -4.0625 1.0625 C-1.12534105 1.35618499 -1.12534105 1.35618499 0 0 Z " fill="#002D44" transform="translate(89,150)"/>
<path d="M0 0 C3.53233755 1.17744585 3.86308075 1.95605641 5.6875 5.0625 C6.12449219 5.79597656 6.56148437 6.52945313 7.01171875 7.28515625 C7.33785156 7.85105469 7.66398437 8.41695312 8 9 C7.01 9 6.02 9 5 9 C5 8.34 5 7.68 5 7 C3.68 7 2.36 7 1 7 C0.67 4.69 0.34 2.38 0 0 Z " fill="#11B7E8" transform="translate(49,106)"/>
<path d="M0 0 C0.33 0.99 0.66 1.98 1 3 C-0.28965176 4.37562854 -1.62689293 5.70766393 -3 7 C-3.66 7 -4.32 7 -5 7 C-5.66 8.32 -6.32 9.64 -7 11 C-7.66 10.67 -8.32 10.34 -9 10 C-6.03 6.7 -3.06 3.4 0 0 Z " fill="#1BD09F" transform="translate(119,51)"/>
<path d="M0 0 C1.2684375 0.433125 1.2684375 0.433125 2.5625 0.875 C6.02361041 2.00772704 9.49372557 3.01824316 13 4 C13 4.66 13 5.32 13 6 C7.77895216 6.63671315 5.32292214 5.23234994 1.3203125 2.19140625 C0.88460937 1.79824219 0.44890625 1.40507812 0 1 C0 0.67 0 0.34 0 0 Z " fill="#1B99C6" transform="translate(75,145)"/>
<path d="M0 0 C1.32 0.33 2.64 0.66 4 1 C1.69 3.31 -0.62 5.62 -3 8 C-3.66 7.01 -4.32 6.02 -5 5 C-4.67 4.01 -4.34 3.02 -4 2 C-2.02 2.495 -2.02 2.495 0 3 C0 2.01 0 1.02 0 0 Z " fill="#18C4CD" transform="translate(90,92)"/>
<path d="M0 0 C0.94875 0.04125 1.8975 0.0825 2.875 0.125 C2.875 0.455 2.875 0.785 2.875 1.125 C1.225 1.455 -0.425 1.785 -2.125 2.125 C-2.125 4.765 -2.125 7.405 -2.125 10.125 C-3.115 9.465 -4.105 8.805 -5.125 8.125 C-5.4375 5.125 -5.4375 5.125 -5.125 2.125 C-3.125 0.125 -3.125 0.125 0 0 Z " fill="#1DB4BF" transform="translate(64.125,73.875)"/>
<path d="M0 0 C-1.20381448 2.49361571 -2.45428722 4.68143083 -4 7 C-3.01 7.33 -2.02 7.66 -1 8 C-2.98 8.99 -2.98 8.99 -5 10 C-5 9.34 -5 8.68 -5 8 C-5.66 8 -6.32 8 -7 8 C-6.44414399 4.1090079 -4.34122117 0 0 0 Z " fill="#0CEFB2" transform="translate(116,58)"/>
<path d="M0 0 C0 3 0 3 -2.375 5.6875 C-5 8 -5 8 -7 8 C-7.66 9.32 -8.32 10.64 -9 12 C-9.66 11.67 -10.32 11.34 -11 11 C-9.92173635 9.72486237 -8.83714481 8.45507431 -7.75 7.1875 C-7.14671875 6.47980469 -6.5434375 5.77210937 -5.921875 5.04296875 C-4.07629602 3.08110329 -2.20054668 1.54330375 0 0 Z " fill="#1DC0AF" transform="translate(105,66)"/>
<path d="M0 0 C0.94875 0.04125 1.8975 0.0825 2.875 0.125 C-0.66539134 3.0406164 -4.2876772 5.62627818 -8.125 8.125 C-7.795 6.805 -7.465 5.485 -7.125 4.125 C-6.465 4.125 -5.805 4.125 -5.125 4.125 C-5.125 3.465 -5.125 2.805 -5.125 2.125 C-3.125 0.125 -3.125 0.125 0 0 Z " fill="#16AEE1" transform="translate(98.125,140.875)"/>
<path d="M0 0 C0.33 0.99 0.66 1.98 1 3 C-2.01887244 6.48331435 -4.56909529 7.79157144 -9 9 C-6 6 -3 3 0 0 Z " fill="#1BA9CC" transform="translate(104,124)"/>
<path d="M0 0 C0 3.19219704 -0.23605791 4.39608549 -2 7 C-4.5 8.3125 -4.5 8.3125 -7 9 C-7.66 8.67 -8.32 8.34 -9 8 C-8 6 -8 6 -6.1875 5.125 C-3.61179002 3.80034915 -1.96545196 2.10584139 0 0 Z " fill="#19BFC3" transform="translate(89,82)"/>
<path d="M0 0 C0.66 0 1.32 0 2 0 C1.82374165 2.37948772 1.30280227 3.70225849 -0.40234375 5.37890625 C-1.90649092 6.62115486 -3.45129851 7.81376056 -5 9 C-4.67 7.35 -4.34 5.7 -4 4 C-2.68 3.67 -1.36 3.34 0 3 C0 2.01 0 1.02 0 0 Z " fill="#17CAC2" transform="translate(101,81)"/>
<path d="M0 0 C0.99 0.33 1.98 0.66 3 1 C0.69 3.31 -1.62 5.62 -4 8 C-4.33 6.68 -4.66 5.36 -5 4 C-2.6875 1.9375 -2.6875 1.9375 0 0 Z " fill="#01534A" transform="translate(119,48)"/>
<path d="M0 0 C2.4375 0.375 2.4375 0.375 5 1 C5.33 1.66 5.66 2.32 6 3 C8.01669827 4.13350534 8.01669827 4.13350534 10 5 C9.67 5.66 9.34 6.32 9 7 C5.18315774 5.44499019 2.80804268 2.96404505 0 0 Z " fill="#044E72" transform="translate(70,128)"/>
<path d="M0 0 C1.32 0 2.64 0 4 0 C4.66 3.3 5.32 6.6 6 10 C2.62358918 6.62358918 1.72549695 4.35482564 0 0 Z " fill="#024B6E" transform="translate(48,100)"/>
<path d="M0 0 C0.33 0.99 0.66 1.98 1 3 C-0.4375 5.6875 -0.4375 5.6875 -2 8 C-3.32 7.67 -4.64 7.34 -6 7 C-4.02 4.69 -2.04 2.38 0 0 Z " fill="#1FB0C5" transform="translate(111,116)"/>
<path d="M0 0 C0.99 0 1.98 0 3 0 C2.34 1.65 1.68 3.3 1 5 C0.34 5 -0.32 5 -1 5 C-1 5.66 -1 6.32 -1 7 C-1.99 6.67 -2.98 6.34 -4 6 C-3.34 5.01 -2.68 4.02 -2 3 C-1.34 3 -0.68 3 0 3 C0 2.01 0 1.02 0 0 Z " fill="#053148" transform="translate(116,129)"/>
<path d="M0 0 C0.66 0.66 1.32 1.32 2 2 C2.66 1.67 3.32 1.34 4 1 C3.67 1.99 3.34 2.98 3 4 C2.34 4 1.68 4 1 4 C1 4.66 1 5.32 1 6 C-0.32 6.33 -1.64 6.66 -3 7 C-1.125 2.25 -1.125 2.25 0 0 Z " fill="#15C2C0" transform="translate(120,103)"/>
<path d="M0 0 C2.64465038 3.1254959 3.84414715 6.08788267 5 10 C4.01 9.34 3.02 8.68 2 8 C2 7.34 2 6.68 2 6 C1.01 6.33 0.02 6.66 -1 7 C-0.67 4.69 -0.34 2.38 0 0 Z " fill="#16ABDC" transform="translate(46,97)"/>
<path d="M0 0 C0.33 0.66 0.66 1.32 1 2 C1.66 2.33 2.32 2.66 3 3 C-1.75 7.875 -1.75 7.875 -4 9 C-4 8.01 -4 7.02 -4 6 C-3.34 6 -2.68 6 -2 6 C-1.34 4.02 -0.68 2.04 0 0 Z " fill="#0DDCC8" transform="translate(125,97)"/>
<path d="M0 0 C1.65 0 3.3 0 5 0 C4.67 0.99 4.34 1.98 4 3 C4.66 3 5.32 3 6 3 C6 2.34 6 1.68 6 1 C6.66 1 7.32 1 8 1 C7.34 2.32 6.68 3.64 6 5 C2.83884224 3.63016497 2.0072908 3.0109362 0 0 Z " fill="#014B63" transform="translate(77,84)"/>
<path d="M0 0 C2.50298434 2.93828597 3.46930939 5.17902761 4 9 C2.68 8.67 1.36 8.34 0 8 C0 5.33333333 0 2.66666667 0 0 Z " fill="#03294E" transform="translate(38,105)"/>
<path d="M0 0 C1.98 1.65 3.96 3.3 6 5 C2.25 6.125 2.25 6.125 0 5 C0 3.35 0 1.7 0 0 Z " fill="#19C0D1" transform="translate(74,82)"/>
<path d="M0 0 C0.33 1.32 0.66 2.64 1 4 C-1.375 5.5625 -1.375 5.5625 -4 7 C-4.66 6.67 -5.32 6.34 -6 6 C-4.02 4.02 -2.04 2.04 0 0 Z " fill="#00505C" transform="translate(105,81)"/>
<path d="M0 0 C0.99 0.66 1.98 1.32 3 2 C2.34 3.32 1.68 4.64 1 6 C-0.32 6 -1.64 6 -3 6 C-3 5.34 -3 4.68 -3 4 C-2.01 4 -1.02 4 0 4 C0 2.68 0 1.36 0 0 Z " fill="#043648" transform="translate(122,122)"/>
<path d="M0 0 C0 0.99 0 1.98 0 3 C-3.3 2.67 -6.6 2.34 -10 2 C-10 1.67 -10 1.34 -10 1 C-2.25 0 -2.25 0 0 0 Z " fill="#078768" transform="translate(114,25)"/>
</svg>
